<svg xmlns="http://www.w3.org/2000/svg" xmlns:xlink="http://www.w3.org/1999/xlink" width="1700" zoomAndPan="magnify" viewBox="0 0 1275 809.999993" height="1080" preserveAspectRatio="xMidYMid meet" version="1.0"><defs><g/><clipPath id="06ad4d52ec"><path d="M 599 419 L 617 419 L 617 436.519531 L 599 436.519531 Z M 599 419 " clip-rule="nonzero"/></clipPath><clipPath id="7a21ed621d"><path d="M 523.058594 245.269531 L 751.808594 245.269531 L 751.808594 436.519531 L 523.058594 436.519531 Z M 523.058594 245.269531 " clip-rule="nonzero"/></clipPath></defs><path fill="#2a79df" d="M 582.628906 314.394531 L 603.824219 314.394531 L 603.824219 335.589844 L 582.628906 335.589844 Z M 582.628906 314.394531 " fill-opacity="1" fill-rule="evenodd"/><path fill="#000000" d="M 639.773438 297.746094 L 656.796875 297.746094 L 656.796875 314.785156 L 639.773438 314.785156 Z M 639.773438 297.746094 " fill-opacity="1" fill-rule="evenodd"/><path fill="#2a79df" d="M 606.851562 339.179688 L 623.878906 339.179688 L 623.878906 356.203125 L 606.851562 356.203125 Z M 606.851562 339.179688 " fill-opacity="1" fill-rule="evenodd"/><path fill="#000000" d="M 585.472656 357.726562 L 593.984375 357.726562 L 593.984375 366.238281 L 585.472656 366.238281 Z M 585.472656 357.726562 " fill-opacity="1" fill-rule="evenodd"/><path fill="#000000" d="M 578.746094 291.605469 L 587.273438 291.605469 L 587.273438 300.117188 L 578.746094 300.117188 Z M 578.746094 291.605469 " fill-opacity="1" fill-rule="evenodd"/><path fill="#000000" d="M 620.375 315.441406 L 628.886719 315.441406 L 628.886719 323.953125 L 620.375 323.953125 Z M 620.375 315.441406 " fill-opacity="1" fill-rule="evenodd"/><path fill="#000000" d="M 665.785156 290.558594 L 674.296875 290.558594 L 674.296875 299.070312 L 665.785156 299.070312 Z M 665.785156 290.558594 " fill-opacity="1" fill-rule="evenodd"/><path fill="#000000" d="M 658.769531 274.664062 L 670.722656 274.664062 L 670.722656 286.628906 L 658.769531 286.628906 Z M 658.769531 274.664062 " fill-opacity="1" fill-rule="evenodd"/><path fill="#000000" d="M 615.546875 256.882812 L 627.515625 256.882812 L 627.515625 268.839844 L 615.546875 268.839844 Z M 615.546875 256.882812 " fill-opacity="1" fill-rule="evenodd"/><path fill="#000000" d="M 644.539062 270.078125 L 653.054688 270.078125 L 653.054688 278.59375 L 644.539062 278.59375 Z M 644.539062 270.078125 " fill-opacity="1" fill-rule="evenodd"/><path fill="#000000" d="M 687.738281 296.140625 L 696.25 296.140625 L 696.25 304.652344 L 687.738281 304.652344 Z M 687.738281 296.140625 " fill-opacity="1" fill-rule="evenodd"/><path fill="#2a79df" d="M 639.664062 322.929688 L 661.433594 322.929688 L 661.433594 344.699219 L 639.664062 344.699219 Z M 639.664062 322.929688 " fill-opacity="1" fill-rule="evenodd"/><path fill="#2a79df" d="M 594.15625 378.640625 L 619.136719 378.640625 L 619.136719 403.621094 L 594.15625 403.621094 Z M 594.15625 378.640625 " fill-opacity="1" fill-rule="evenodd"/><path fill="#000000" d="M 625.472656 362.492188 L 642.496094 362.492188 L 642.496094 379.53125 L 625.472656 379.53125 Z M 625.472656 362.492188 " fill-opacity="1" fill-rule="evenodd"/><path fill="#2a79df" d="M 652.300781 384.6875 L 669.324219 384.6875 L 669.324219 401.710938 L 652.300781 401.710938 Z M 652.300781 384.6875 " fill-opacity="1" fill-rule="evenodd"/><g clip-path="url(#06ad4d52ec)"><path fill="#000000" d="M 599.675781 419.25 L 616.703125 419.25 L 616.703125 436.273438 L 599.675781 436.273438 Z M 599.675781 419.25 " fill-opacity="1" fill-rule="evenodd"/></g><path fill="#000000" d="M 665.203125 315.550781 L 682.226562 315.550781 L 682.226562 332.574219 L 665.203125 332.574219 Z M 665.203125 315.550781 " fill-opacity="1" fill-rule="evenodd"/><path fill="#000000" d="M 606.511719 361.59375 L 615.023438 361.59375 L 615.023438 370.105469 L 606.511719 370.105469 Z M 606.511719 361.59375 " fill-opacity="1" fill-rule="evenodd"/><path fill="#000000" d="M 635.359375 349.113281 L 643.871094 349.113281 L 643.871094 357.628906 L 635.359375 357.628906 Z M 635.359375 349.113281 " fill-opacity="1" fill-rule="evenodd"/><path fill="#000000" d="M 628.023438 391.253906 L 643.273438 391.253906 L 643.273438 406.492188 L 628.023438 406.492188 Z M 628.023438 391.253906 " fill-opacity="1" fill-rule="evenodd"/><path fill="#000000" d="M 623.125 421.800781 L 633.21875 421.800781 L 633.21875 431.882812 L 623.125 431.882812 Z M 623.125 421.800781 " fill-opacity="1" fill-rule="evenodd"/><path fill="#000000" d="M 648.152344 357.203125 L 663.390625 357.203125 L 663.390625 372.441406 L 648.152344 372.441406 Z M 648.152344 357.203125 " fill-opacity="1" fill-rule="evenodd"/><path fill="#000000" d="M 667.234375 342.753906 L 682.484375 342.753906 L 682.484375 357.992188 L 667.234375 357.992188 Z M 667.234375 342.753906 " fill-opacity="1" fill-rule="evenodd"/><path fill="#2a79df" d="M 603.449219 278.835938 L 628.414062 278.835938 L 628.414062 303.800781 L 603.449219 303.800781 Z M 603.449219 278.835938 " fill-opacity="1" fill-rule="evenodd"/><g clip-path="url(#7a21ed621d)"><path fill="#000000" d="M 523.425781 332.613281 C 528.511719 332.476562 532.679688 331.117188 535.902344 328.476562 C 539.089844 325.863281 541.230469 322.273438 542.3125 317.726562 C 543.371094 313.152344 543.90625 305.308594 543.980469 294.253906 C 544.039062 283.199219 544.246094 275.902344 544.585938 272.414062 C 545.195312 266.855469 546.277344 262.367188 547.90625 258.988281 C 549.535156 255.632812 551.542969 252.917969 553.914062 250.875 C 556.324219 248.871094 559.375 247.3125 563.070312 246.265625 C 565.578125 245.621094 569.6875 245.28125 575.378906 245.28125 L 580.9375 245.28125 L 580.9375 260.886719 L 577.847656 260.886719 C 570.964844 260.886719 566.417969 262.101562 564.140625 264.617188 C 561.90625 267.097656 560.785156 272.621094 560.785156 281.242188 C 560.785156 298.609375 560.410156 309.566406 559.667969 314.152344 C 558.488281 321.242188 556.445312 326.703125 553.5625 330.53125 C 550.679688 334.398438 546.167969 337.792969 539.992188 340.773438 C 547.285156 343.824219 552.578125 348.46875 555.859375 354.746094 C 559.121094 360.984375 560.773438 371.261719 560.773438 385.511719 C 560.773438 398.402344 560.871094 406.101562 561.152344 408.546875 C 561.699219 413.058594 563.011719 416.21875 565.1875 418.007812 C 567.328125 419.769531 571.5625 420.683594 577.835938 420.683594 L 580.925781 420.683594 L 580.925781 436.285156 L 575.367188 436.285156 C 568.886719 436.285156 564.179688 435.75 561.261719 434.691406 C 557.015625 433.171875 553.527344 430.691406 550.742188 427.300781 C 547.957031 423.871094 546.132812 419.566406 545.316406 414.3125 C 544.503906 409.082031 544.027344 400.507812 543.953125 388.566406 C 543.882812 376.660156 543.347656 368.414062 542.289062 363.84375 C 541.207031 359.257812 539.066406 355.667969 535.878906 353.019531 C 532.65625 350.34375 528.484375 348.945312 523.402344 348.847656 L 523.402344 332.636719 Z M 751.570312 332.613281 L 751.570312 348.824219 C 746.488281 348.921875 742.316406 350.320312 739.09375 352.992188 C 735.90625 355.644531 733.765625 359.234375 732.683594 363.746094 C 731.640625 368.292969 731.054688 376.089844 731.019531 387.144531 C 730.945312 398.234375 730.75 405.492188 730.410156 409.019531 C 729.800781 414.652344 728.707031 419.125 727.089844 422.484375 C 725.460938 425.839844 723.464844 428.515625 721.082031 430.523438 C 718.675781 432.550781 715.621094 434.085938 711.925781 435.128906 C 709.421875 435.871094 705.308594 436.25 699.617188 436.25 L 694.046875 436.25 L 694.046875 420.648438 L 697.136719 420.648438 C 704.019531 420.648438 708.570312 419.394531 710.84375 416.914062 C 713.082031 414.433594 714.199219 408.839844 714.199219 400.15625 C 714.199219 383.605469 714.503906 373.085938 715.113281 368.644531 C 716.167969 361.324219 718.296875 355.414062 721.460938 351.011719 C 724.644531 346.632812 729.15625 343.203125 734.996094 340.734375 C 727.359375 337.113281 722.007812 332.296875 718.882812 326.289062 C 715.757812 320.28125 714.199219 310.175781 714.199219 295.933594 C 714.199219 283.007812 714.066406 275.308594 713.726562 272.765625 C 713.25 268.316406 711.960938 265.238281 709.785156 263.476562 C 707.644531 261.75 703.414062 260.859375 697.136719 260.859375 L 694.046875 260.859375 L 694.046875 245.257812 L 699.617188 245.257812 C 706.101562 245.257812 710.804688 245.769531 713.726562 246.851562 C 717.96875 248.308594 721.460938 250.753906 724.246094 254.171875 C 727.03125 257.625 728.855469 261.96875 729.667969 267.195312 C 730.484375 272.460938 730.957031 281.035156 731.03125 292.941406 C 731.066406 304.882812 731.640625 313.09375 732.695312 317.640625 C 733.777344 322.191406 735.917969 325.777344 739.105469 328.429688 C 742.328125 331.078125 746.5 332.464844 751.582031 332.601562 Z M 751.570312 332.613281 " fill-opacity="1" fill-rule="nonzero"/></g><g fill="#000000" fill-opacity="1"><g transform="translate(404.541904, 508.74975)"><g><path d="M 5.734375 0 C 4.898438 0 4.484375 -0.414062 4.484375 -1.25 L 4.484375 -50.171875 C 4.484375 -51.003906 4.898438 -51.421875 5.734375 -51.421875 L 23.734375 -51.421875 C 27.398438 -51.421875 30.617188 -50.769531 33.390625 -49.46875 C 36.160156 -48.175781 38.300781 -46.351562 39.8125 -44 C 41.332031 -41.65625 42.09375 -38.941406 42.09375 -35.859375 L 42.09375 -15.578125 C 42.09375 -12.492188 41.332031 -9.773438 39.8125 -7.421875 C 38.300781 -5.066406 36.160156 -3.238281 33.390625 -1.9375 C 30.617188 -0.644531 27.398438 0 23.734375 0 Z M 14.84375 -9.328125 C 14.84375 -9.035156 14.988281 -8.890625 15.28125 -8.890625 L 24.09375 -8.890625 C 26.351562 -8.890625 28.179688 -9.644531 29.578125 -11.15625 C 30.972656 -12.675781 31.691406 -14.710938 31.734375 -17.265625 L 31.734375 -34.15625 C 31.734375 -36.707031 31.035156 -38.738281 29.640625 -40.25 C 28.242188 -41.769531 26.375 -42.53125 24.03125 -42.53125 L 15.28125 -42.53125 C 14.988281 -42.53125 14.84375 -42.382812 14.84375 -42.09375 Z M 14.84375 -9.328125 "/></g></g></g><g fill="#000000" fill-opacity="1"><g transform="translate(452.80533, 508.74975)"><g><path d="M 9.546875 -41.359375 C 7.691406 -41.359375 6.175781 -41.929688 5 -43.078125 C 3.820312 -44.234375 3.234375 -45.71875 3.234375 -47.53125 C 3.234375 -49.34375 3.820312 -50.820312 5 -51.96875 C 6.175781 -53.125 7.691406 -53.703125 9.546875 -53.703125 C 11.460938 -53.703125 12.992188 -53.140625 14.140625 -52.015625 C 15.296875 -50.890625 15.875 -49.394531 15.875 -47.53125 C 15.875 -45.675781 15.296875 -44.179688 14.140625 -43.046875 C 12.992188 -41.921875 11.460938 -41.359375 9.546875 -41.359375 Z M 5.65625 0 C 4.820312 0 4.40625 -0.414062 4.40625 -1.25 L 4.40625 -36.515625 C 4.40625 -37.347656 4.820312 -37.765625 5.65625 -37.765625 L 13.515625 -37.765625 C 14.347656 -37.765625 14.765625 -37.347656 14.765625 -36.515625 L 14.765625 -1.25 C 14.765625 -0.414062 14.347656 0 13.515625 0 Z M 5.65625 0 "/></g></g></g><g fill="#000000" fill-opacity="1"><g transform="translate(474.77043, 508.74975)"><g><path d="M 26.890625 -36.515625 C 26.890625 -37.347656 27.304688 -37.765625 28.140625 -37.765625 L 36 -37.765625 C 36.832031 -37.765625 37.25 -37.347656 37.25 -36.515625 L 37.25 -3.375 C 37.25 3.039062 35.410156 7.617188 31.734375 10.359375 C 28.066406 13.097656 23.34375 14.46875 17.5625 14.46875 C 15.945312 14.46875 14.109375 14.347656 12.046875 14.109375 C 11.316406 14.054688 10.953125 13.613281 10.953125 12.78125 L 11.234375 5.953125 C 11.234375 5.554688 11.367188 5.25 11.640625 5.03125 C 11.910156 4.8125 12.242188 4.75 12.640625 4.84375 C 14.453125 5.09375 15.945312 5.21875 17.125 5.21875 C 20.25 5.21875 22.65625 4.53125 24.34375 3.15625 C 26.039062 1.789062 26.890625 -0.410156 26.890625 -3.453125 C 26.890625 -3.597656 26.835938 -3.679688 26.734375 -3.703125 C 26.640625 -3.734375 26.519531 -3.675781 26.375 -3.53125 C 24.5625 -1.570312 21.867188 -0.59375 18.296875 -0.59375 C 15.109375 -0.59375 12.179688 -1.363281 9.515625 -2.90625 C 6.847656 -4.445312 4.953125 -6.929688 3.828125 -10.359375 C 3.085938 -12.609375 2.71875 -15.523438 2.71875 -19.109375 C 2.71875 -22.921875 3.160156 -26.03125 4.046875 -28.4375 C 5.066406 -31.414062 6.800781 -33.8125 9.25 -35.625 C 11.707031 -37.4375 14.550781 -38.34375 17.78125 -38.34375 C 21.457031 -38.34375 24.320312 -37.242188 26.375 -35.046875 C 26.519531 -34.898438 26.640625 -34.847656 26.734375 -34.890625 C 26.835938 -34.941406 26.890625 -35.066406 26.890625 -35.265625 Z M 26.296875 -13.15625 C 26.691406 -14.625 26.890625 -16.628906 26.890625 -19.171875 C 26.890625 -20.691406 26.835938 -21.867188 26.734375 -22.703125 C 26.640625 -23.535156 26.472656 -24.316406 26.234375 -25.046875 C 25.785156 -26.367188 25.046875 -27.4375 24.015625 -28.25 C 22.992188 -29.0625 21.722656 -29.46875 20.203125 -29.46875 C 18.734375 -29.46875 17.484375 -29.0625 16.453125 -28.25 C 15.429688 -27.4375 14.671875 -26.367188 14.171875 -25.046875 C 13.492188 -23.578125 13.15625 -21.597656 13.15625 -19.109375 C 13.15625 -16.359375 13.445312 -14.394531 14.03125 -13.21875 C 14.46875 -11.894531 15.238281 -10.828125 16.34375 -10.015625 C 17.445312 -9.210938 18.757812 -8.8125 20.28125 -8.8125 C 21.84375 -8.8125 23.140625 -9.210938 24.171875 -10.015625 C 25.203125 -10.828125 25.910156 -11.875 26.296875 -13.15625 Z M 26.296875 -13.15625 "/></g></g></g><g fill="#000000" fill-opacity="1"><g transform="translate(518.479386, 508.74975)"><g><path d="M 9.546875 -41.359375 C 7.691406 -41.359375 6.175781 -41.929688 5 -43.078125 C 3.820312 -44.234375 3.234375 -45.71875 3.234375 -47.53125 C 3.234375 -49.34375 3.820312 -50.820312 5 -51.96875 C 6.175781 -53.125 7.691406 -53.703125 9.546875 -53.703125 C 11.460938 -53.703125 12.992188 -53.140625 14.140625 -52.015625 C 15.296875 -50.890625 15.875 -49.394531 15.875 -47.53125 C 15.875 -45.675781 15.296875 -44.179688 14.140625 -43.046875 C 12.992188 -41.921875 11.460938 -41.359375 9.546875 -41.359375 Z M 5.65625 0 C 4.820312 0 4.40625 -0.414062 4.40625 -1.25 L 4.40625 -36.515625 C 4.40625 -37.347656 4.820312 -37.765625 5.65625 -37.765625 L 13.515625 -37.765625 C 14.347656 -37.765625 14.765625 -37.347656 14.765625 -36.515625 L 14.765625 -1.25 C 14.765625 -0.414062 14.347656 0 13.515625 0 Z M 5.65625 0 "/></g></g></g><g fill="#000000" fill-opacity="1"><g transform="translate(540.444489, 508.74975)"><g><path d="M 25.5 -30.703125 C 25.5 -29.878906 25.082031 -29.46875 24.25 -29.46875 L 17.625 -29.46875 C 17.332031 -29.46875 17.1875 -29.316406 17.1875 -29.015625 L 17.1875 -13.8125 C 17.1875 -12.195312 17.515625 -11.007812 18.171875 -10.25 C 18.835938 -9.488281 19.90625 -9.109375 21.375 -9.109375 L 23.4375 -9.109375 C 24.269531 -9.109375 24.6875 -8.691406 24.6875 -7.859375 L 24.6875 -1.546875 C 24.6875 -0.765625 24.269531 -0.320312 23.4375 -0.21875 C 21.570312 -0.125 20.222656 -0.078125 19.390625 -0.078125 C 15.328125 -0.078125 12.289062 -0.757812 10.28125 -2.125 C 8.269531 -3.5 7.242188 -6.046875 7.203125 -9.765625 L 7.203125 -29.015625 C 7.203125 -29.316406 7.054688 -29.46875 6.765625 -29.46875 L 3.015625 -29.46875 C 2.179688 -29.46875 1.765625 -29.878906 1.765625 -30.703125 L 1.765625 -36.515625 C 1.765625 -37.347656 2.179688 -37.765625 3.015625 -37.765625 L 6.765625 -37.765625 C 7.054688 -37.765625 7.203125 -37.910156 7.203125 -38.203125 L 7.203125 -46.5 C 7.203125 -47.332031 7.617188 -47.75 8.453125 -47.75 L 15.9375 -47.75 C 16.769531 -47.75 17.1875 -47.332031 17.1875 -46.5 L 17.1875 -38.203125 C 17.1875 -37.910156 17.332031 -37.765625 17.625 -37.765625 L 24.25 -37.765625 C 25.082031 -37.765625 25.5 -37.347656 25.5 -36.515625 Z M 25.5 -30.703125 "/></g></g></g><g fill="#000000" fill-opacity="1"><g transform="translate(571.224662, 508.74975)"><g><path d="M 18.953125 -38.34375 C 22.140625 -38.34375 24.976562 -37.789062 27.46875 -36.6875 C 29.96875 -35.59375 31.914062 -34.085938 33.3125 -32.171875 C 34.707031 -30.265625 35.40625 -28.132812 35.40625 -25.78125 L 35.40625 -1.25 C 35.40625 -0.414062 34.988281 0 34.15625 0 L 26.296875 0 C 25.460938 0 25.046875 -0.414062 25.046875 -1.25 L 25.046875 -3.015625 C 25.046875 -3.210938 25 -3.320312 24.90625 -3.34375 C 24.8125 -3.363281 24.6875 -3.300781 24.53125 -3.15625 C 22.28125 -0.65625 18.925781 0.59375 14.46875 0.59375 C 10.695312 0.59375 7.660156 -0.335938 5.359375 -2.203125 C 3.054688 -4.066406 1.90625 -6.8125 1.90625 -10.4375 C 1.90625 -14.207031 3.226562 -17.128906 5.875 -19.203125 C 8.519531 -21.285156 12.289062 -22.328125 17.1875 -22.328125 L 24.609375 -22.328125 C 24.898438 -22.328125 25.046875 -22.476562 25.046875 -22.78125 L 25.046875 -24.3125 C 25.046875 -25.9375 24.546875 -27.203125 23.546875 -28.109375 C 22.546875 -29.015625 21.085938 -29.46875 19.171875 -29.46875 C 17.703125 -29.46875 16.488281 -29.21875 15.53125 -28.71875 C 14.582031 -28.226562 13.9375 -27.546875 13.59375 -26.671875 C 13.300781 -25.984375 12.8125 -25.664062 12.125 -25.71875 L 3.96875 -26.75 C 3.570312 -26.789062 3.265625 -26.894531 3.046875 -27.0625 C 2.828125 -27.238281 2.742188 -27.472656 2.796875 -27.765625 C 3.035156 -29.773438 3.878906 -31.585938 5.328125 -33.203125 C 6.773438 -34.816406 8.6875 -36.078125 11.0625 -36.984375 C 13.4375 -37.890625 16.066406 -38.34375 18.953125 -38.34375 Z M 17.484375 -7.125 C 19.585938 -7.125 21.375 -7.6875 22.84375 -8.8125 C 24.3125 -9.9375 25.046875 -11.382812 25.046875 -13.15625 L 25.046875 -15.71875 C 25.046875 -16.007812 24.898438 -16.15625 24.609375 -16.15625 L 19.390625 -16.15625 C 17.191406 -16.15625 15.453125 -15.738281 14.171875 -14.90625 C 12.898438 -14.082031 12.265625 -12.910156 12.265625 -11.390625 C 12.265625 -10.066406 12.742188 -9.023438 13.703125 -8.265625 C 14.660156 -7.503906 15.921875 -7.125 17.484375 -7.125 Z M 17.484375 -7.125 "/></g></g></g><g fill="#000000" fill-opacity="1"><g transform="translate(612.876753, 508.74975)"><g><path d="M 5.21875 0 C 4.382812 0 3.96875 -0.414062 3.96875 -1.25 L 3.96875 -50.171875 C 3.96875 -51.003906 4.382812 -51.421875 5.21875 -51.421875 L 13.078125 -51.421875 C 13.910156 -51.421875 14.328125 -51.003906 14.328125 -50.171875 L 14.328125 -1.25 C 14.328125 -0.414062 13.910156 0 13.078125 0 Z M 5.21875 0 "/></g></g></g><g fill="#000000" fill-opacity="1"><g transform="translate(634.033812, 508.74975)"><g/></g></g><g fill="#000000" fill-opacity="1"><g transform="translate(651.59138, 508.74975)"><g><path d="M 5.734375 0 C 4.898438 0 4.484375 -0.414062 4.484375 -1.25 L 4.484375 -50.171875 C 4.484375 -51.003906 4.898438 -51.421875 5.734375 -51.421875 L 23.734375 -51.421875 C 27.398438 -51.421875 30.617188 -50.769531 33.390625 -49.46875 C 36.160156 -48.175781 38.300781 -46.351562 39.8125 -44 C 41.332031 -41.65625 42.09375 -38.941406 42.09375 -35.859375 L 42.09375 -15.578125 C 42.09375 -12.492188 41.332031 -9.773438 39.8125 -7.421875 C 38.300781 -5.066406 36.160156 -3.238281 33.390625 -1.9375 C 30.617188 -0.644531 27.398438 0 23.734375 0 Z M 14.84375 -9.328125 C 14.84375 -9.035156 14.988281 -8.890625 15.28125 -8.890625 L 24.09375 -8.890625 C 26.351562 -8.890625 28.179688 -9.644531 29.578125 -11.15625 C 30.972656 -12.675781 31.691406 -14.710938 31.734375 -17.265625 L 31.734375 -34.15625 C 31.734375 -36.707031 31.035156 -38.738281 29.640625 -40.25 C 28.242188 -41.769531 26.375 -42.53125 24.03125 -42.53125 L 15.28125 -42.53125 C 14.988281 -42.53125 14.84375 -42.382812 14.84375 -42.09375 Z M 14.84375 -9.328125 "/></g></g></g><g fill="#000000" fill-opacity="1"><g transform="translate(699.854809, 508.74975)"><g><path d="M 22.046875 -8.15625 C 25.273438 -8.300781 27.75 -9.425781 29.46875 -11.53125 C 29.757812 -11.875 30.078125 -12.046875 30.421875 -12.046875 C 30.710938 -12.046875 30.976562 -11.925781 31.21875 -11.6875 L 35.40625 -7.640625 C 35.707031 -7.347656 35.859375 -7.054688 35.859375 -6.765625 C 35.859375 -6.421875 35.757812 -6.125 35.5625 -5.875 C 33.945312 -3.863281 31.875 -2.28125 29.34375 -1.125 C 26.820312 0.0195312 24.066406 0.59375 21.078125 0.59375 C 16.578125 0.59375 12.84375 -0.554688 9.875 -2.859375 C 6.914062 -5.160156 4.921875 -8.320312 3.890625 -12.34375 C 3.304688 -14.5 3.015625 -16.773438 3.015625 -19.171875 C 3.015625 -22.015625 3.285156 -24.414062 3.828125 -26.375 C 4.804688 -30 6.773438 -32.910156 9.734375 -35.109375 C 12.691406 -37.316406 16.207031 -38.421875 20.28125 -38.421875 C 25.082031 -38.421875 28.890625 -37 31.703125 -34.15625 C 34.515625 -31.320312 36.335938 -27.332031 37.171875 -22.1875 C 37.367188 -20.570312 37.515625 -18.785156 37.609375 -16.828125 C 37.609375 -15.992188 37.191406 -15.578125 36.359375 -15.578125 L 13.8125 -15.578125 C 13.519531 -15.578125 13.375 -15.429688 13.375 -15.140625 C 13.519531 -14.109375 13.691406 -13.347656 13.890625 -12.859375 C 14.378906 -11.335938 15.34375 -10.171875 16.78125 -9.359375 C 18.226562 -8.554688 19.984375 -8.15625 22.046875 -8.15625 Z M 20.125 -29.46875 C 18.5625 -29.46875 17.253906 -29.085938 16.203125 -28.328125 C 15.148438 -27.566406 14.425781 -26.5 14.03125 -25.125 C 13.789062 -24.195312 13.644531 -23.585938 13.59375 -23.296875 C 13.539062 -22.992188 13.660156 -22.84375 13.953125 -22.84375 L 26.453125 -22.84375 C 26.691406 -22.84375 26.8125 -22.941406 26.8125 -23.140625 C 26.8125 -23.679688 26.710938 -24.242188 26.515625 -24.828125 C 26.078125 -26.253906 25.316406 -27.382812 24.234375 -28.21875 C 23.160156 -29.050781 21.789062 -29.46875 20.125 -29.46875 Z M 20.125 -29.46875 "/></g></g></g><g fill="#000000" fill-opacity="1"><g transform="translate(742.902637, 508.74975)"><g><path d="M 37.25 -28.140625 C 38.175781 -25.691406 38.640625 -22.65625 38.640625 -19.03125 C 38.640625 -15.5 38.222656 -12.5625 37.390625 -10.21875 C 36.410156 -6.976562 34.632812 -4.363281 32.0625 -2.375 C 29.5 -0.394531 26.550781 0.59375 23.21875 0.59375 C 19.644531 0.59375 16.851562 -0.726562 14.84375 -3.375 C 14.738281 -3.519531 14.625 -3.582031 14.5 -3.5625 C 14.382812 -3.539062 14.328125 -3.429688 14.328125 -3.234375 L 14.328125 -1.25 C 14.328125 -0.414062 13.910156 0 13.078125 0 L 5.21875 0 C 4.382812 0 3.96875 -0.414062 3.96875 -1.25 L 3.96875 -50.171875 C 3.96875 -51.003906 4.382812 -51.421875 5.21875 -51.421875 L 13.078125 -51.421875 C 13.910156 -51.421875 14.328125 -51.003906 14.328125 -50.171875 L 14.328125 -35.046875 C 14.328125 -34.847656 14.382812 -34.722656 14.5 -34.671875 C 14.625 -34.628906 14.738281 -34.679688 14.84375 -34.828125 C 16.800781 -37.222656 19.59375 -38.421875 23.21875 -38.421875 C 26.550781 -38.421875 29.453125 -37.488281 31.921875 -35.625 C 34.390625 -33.769531 36.164062 -31.273438 37.25 -28.140625 Z M 26.234375 -11.609375 C 27.253906 -13.515625 27.765625 -15.914062 27.765625 -18.8125 C 27.765625 -21.988281 27.179688 -24.554688 26.015625 -26.515625 C 24.835938 -28.378906 23.117188 -29.3125 20.859375 -29.3125 C 18.804688 -29.3125 17.164062 -28.359375 15.9375 -26.453125 C 14.914062 -24.640625 14.40625 -22.113281 14.40625 -18.875 C 14.40625 -15.84375 14.894531 -13.421875 15.875 -11.609375 C 17.039062 -9.503906 18.703125 -8.453125 20.859375 -8.453125 C 23.265625 -8.453125 25.054688 -9.503906 26.234375 -11.609375 Z M 26.234375 -11.609375 "/></g></g></g><g fill="#000000" fill-opacity="1"><g transform="translate(786.685052, 508.74975)"><g><path d="M 25.859375 -36.515625 C 25.859375 -37.347656 26.273438 -37.765625 27.109375 -37.765625 L 34.96875 -37.765625 C 35.800781 -37.765625 36.21875 -37.347656 36.21875 -36.515625 L 36.21875 -1.25 C 36.21875 -0.414062 35.800781 0 34.96875 0 L 27.109375 0 C 26.273438 0 25.859375 -0.414062 25.859375 -1.25 L 25.859375 -3.234375 C 25.859375 -3.429688 25.796875 -3.539062 25.671875 -3.5625 C 25.554688 -3.582031 25.445312 -3.519531 25.34375 -3.375 C 23.4375 -0.78125 20.425781 0.515625 16.3125 0.515625 C 12.582031 0.515625 9.519531 -0.609375 7.125 -2.859375 C 4.726562 -5.117188 3.53125 -8.28125 3.53125 -12.34375 L 3.53125 -36.515625 C 3.53125 -37.347656 3.945312 -37.765625 4.78125 -37.765625 L 12.5625 -37.765625 C 13.394531 -37.765625 13.8125 -37.347656 13.8125 -36.515625 L 13.8125 -14.921875 C 13.8125 -12.953125 14.335938 -11.351562 15.390625 -10.125 C 16.441406 -8.90625 17.898438 -8.296875 19.765625 -8.296875 C 21.429688 -8.296875 22.800781 -8.796875 23.875 -9.796875 C 24.957031 -10.804688 25.617188 -12.117188 25.859375 -13.734375 Z M 25.859375 -36.515625 "/></g></g></g><g fill="#000000" fill-opacity="1"><g transform="translate(829.585947, 508.74975)"><g><path d="M 26.890625 -36.515625 C 26.890625 -37.347656 27.304688 -37.765625 28.140625 -37.765625 L 36 -37.765625 C 36.832031 -37.765625 37.25 -37.347656 37.25 -36.515625 L 37.25 -3.375 C 37.25 3.039062 35.410156 7.617188 31.734375 10.359375 C 28.066406 13.097656 23.34375 14.46875 17.5625 14.46875 C 15.945312 14.46875 14.109375 14.347656 12.046875 14.109375 C 11.316406 14.054688 10.953125 13.613281 10.953125 12.78125 L 11.234375 5.953125 C 11.234375 5.554688 11.367188 5.25 11.640625 5.03125 C 11.910156 4.8125 12.242188 4.75 12.640625 4.84375 C 14.453125 5.09375 15.945312 5.21875 17.125 5.21875 C 20.25 5.21875 22.65625 4.53125 24.34375 3.15625 C 26.039062 1.789062 26.890625 -0.410156 26.890625 -3.453125 C 26.890625 -3.597656 26.835938 -3.679688 26.734375 -3.703125 C 26.640625 -3.734375 26.519531 -3.675781 26.375 -3.53125 C 24.5625 -1.570312 21.867188 -0.59375 18.296875 -0.59375 C 15.109375 -0.59375 12.179688 -1.363281 9.515625 -2.90625 C 6.847656 -4.445312 4.953125 -6.929688 3.828125 -10.359375 C 3.085938 -12.609375 2.71875 -15.523438 2.71875 -19.109375 C 2.71875 -22.921875 3.160156 -26.03125 4.046875 -28.4375 C 5.066406 -31.414062 6.800781 -33.8125 9.25 -35.625 C 11.707031 -37.4375 14.550781 -38.34375 17.78125 -38.34375 C 21.457031 -38.34375 24.320312 -37.242188 26.375 -35.046875 C 26.519531 -34.898438 26.640625 -34.847656 26.734375 -34.890625 C 26.835938 -34.941406 26.890625 -35.066406 26.890625 -35.265625 Z M 26.296875 -13.15625 C 26.691406 -14.625 26.890625 -16.628906 26.890625 -19.171875 C 26.890625 -20.691406 26.835938 -21.867188 26.734375 -22.703125 C 26.640625 -23.535156 26.472656 -24.316406 26.234375 -25.046875 C 25.785156 -26.367188 25.046875 -27.4375 24.015625 -28.25 C 22.992188 -29.0625 21.722656 -29.46875 20.203125 -29.46875 C 18.734375 -29.46875 17.484375 -29.0625 16.453125 -28.25 C 15.429688 -27.4375 14.671875 -26.367188 14.171875 -25.046875 C 13.492188 -23.578125 13.15625 -21.597656 13.15625 -19.109375 C 13.15625 -16.359375 13.445312 -14.394531 14.03125 -13.21875 C 14.46875 -11.894531 15.238281 -10.828125 16.34375 -10.015625 C 17.445312 -9.210938 18.757812 -8.8125 20.28125 -8.8125 C 21.84375 -8.8125 23.140625 -9.210938 24.171875 -10.015625 C 25.203125 -10.828125 25.910156 -11.875 26.296875 -13.15625 Z M 26.296875 -13.15625 "/></g></g></g><g fill="#2a79df" fill-opacity="1"><g transform="translate(551.926721, 556.631869)"><g><path d="M 2.9375 0 C 2.582031 0 2.40625 -0.175781 2.40625 -0.53125 L 2.40625 -22.546875 C 2.40625 -22.890625 2.582031 -23.0625 2.9375 -23.0625 L 5.703125 -23.0625 C 6.054688 -23.0625 6.234375 -22.890625 6.234375 -22.546875 L 6.234375 -0.53125 C 6.234375 -0.175781 6.054688 0 5.703125 0 Z M 2.9375 0 "/></g></g></g><g fill="#2a79df" fill-opacity="1"><g transform="translate(560.553956, 556.631869)"><g><path d="M 17.4375 -23.0625 C 17.78125 -23.0625 17.953125 -22.890625 17.953125 -22.546875 L 17.953125 -20.265625 C 17.953125 -19.910156 17.78125 -19.734375 17.4375 -19.734375 L 11.53125 -19.734375 C 11.394531 -19.734375 11.328125 -19.671875 11.328125 -19.546875 L 11.328125 -0.53125 C 11.328125 -0.175781 11.15625 0 10.8125 0 L 8.046875 0 C 7.691406 0 7.515625 -0.175781 7.515625 -0.53125 L 7.515625 -19.546875 C 7.515625 -19.671875 7.445312 -19.734375 7.3125 -19.734375 L 1.640625 -19.734375 C 1.296875 -19.734375 1.125 -19.910156 1.125 -20.265625 L 1.125 -22.546875 C 1.125 -22.890625 1.296875 -23.0625 1.640625 -23.0625 Z M 17.4375 -23.0625 "/></g></g></g><g fill="#2a79df" fill-opacity="1"><g transform="translate(579.619471, 556.631869)"><g/></g></g><g fill="#2a79df" fill-opacity="1"><g transform="translate(586.205137, 556.631869)"><g><path d="M 9.8125 0.265625 C 8.144531 0.265625 6.679688 -0.0078125 5.421875 -0.5625 C 4.160156 -1.113281 3.1875 -1.882812 2.5 -2.875 C 1.820312 -3.875 1.484375 -5.035156 1.484375 -6.359375 L 1.484375 -7.046875 C 1.484375 -7.398438 1.660156 -7.578125 2.015625 -7.578125 L 4.71875 -7.578125 C 5.0625 -7.578125 5.234375 -7.410156 5.234375 -7.078125 L 5.234375 -6.5625 C 5.234375 -5.550781 5.675781 -4.707031 6.5625 -4.03125 C 7.457031 -3.363281 8.640625 -3.03125 10.109375 -3.03125 C 11.453125 -3.03125 12.460938 -3.316406 13.140625 -3.890625 C 13.828125 -4.460938 14.171875 -5.195312 14.171875 -6.09375 C 14.171875 -6.707031 13.984375 -7.226562 13.609375 -7.65625 C 13.234375 -8.082031 12.695312 -8.472656 12 -8.828125 C 11.3125 -9.179688 10.273438 -9.625 8.890625 -10.15625 C 7.335938 -10.71875 6.078125 -11.25 5.109375 -11.75 C 4.140625 -12.257812 3.332031 -12.945312 2.6875 -13.8125 C 2.039062 -14.6875 1.71875 -15.769531 1.71875 -17.0625 C 1.71875 -19 2.421875 -20.523438 3.828125 -21.640625 C 5.234375 -22.765625 7.109375 -23.328125 9.453125 -23.328125 C 11.097656 -23.328125 12.550781 -23.039062 13.8125 -22.46875 C 15.082031 -21.894531 16.066406 -21.097656 16.765625 -20.078125 C 17.472656 -19.054688 17.828125 -17.878906 17.828125 -16.546875 L 17.828125 -16.109375 C 17.828125 -15.765625 17.648438 -15.59375 17.296875 -15.59375 L 14.59375 -15.59375 C 14.445312 -15.59375 14.320312 -15.628906 14.21875 -15.703125 C 14.125 -15.773438 14.078125 -15.867188 14.078125 -15.984375 L 14.078125 -16.34375 C 14.078125 -17.375 13.648438 -18.242188 12.796875 -18.953125 C 11.953125 -19.671875 10.785156 -20.03125 9.296875 -20.03125 C 8.085938 -20.03125 7.144531 -19.773438 6.46875 -19.265625 C 5.800781 -18.765625 5.46875 -18.054688 5.46875 -17.140625 C 5.46875 -16.472656 5.644531 -15.929688 6 -15.515625 C 6.351562 -15.097656 6.878906 -14.71875 7.578125 -14.375 C 8.285156 -14.039062 9.375 -13.609375 10.84375 -13.078125 C 12.40625 -12.484375 13.648438 -11.945312 14.578125 -11.46875 C 15.515625 -10.988281 16.316406 -10.3125 16.984375 -9.4375 C 17.660156 -8.570312 18 -7.488281 18 -6.1875 C 18 -4.914062 17.664062 -3.789062 17 -2.8125 C 16.34375 -1.832031 15.398438 -1.070312 14.171875 -0.53125 C 12.941406 0 11.488281 0.265625 9.8125 0.265625 Z M 9.8125 0.265625 "/></g></g></g><g fill="#2a79df" fill-opacity="1"><g transform="translate(605.632865, 556.631869)"><g><path d="M 9.234375 0.265625 C 7.492188 0.265625 5.992188 -0.171875 4.734375 -1.046875 C 3.484375 -1.929688 2.617188 -3.15625 2.140625 -4.71875 C 1.765625 -5.789062 1.578125 -7.039062 1.578125 -8.46875 C 1.578125 -9.875 1.753906 -11.125 2.109375 -12.21875 C 2.609375 -13.757812 3.484375 -14.957031 4.734375 -15.8125 C 5.992188 -16.675781 7.503906 -17.109375 9.265625 -17.109375 C 10.929688 -17.109375 12.375 -16.675781 13.59375 -15.8125 C 14.8125 -14.957031 15.675781 -13.773438 16.1875 -12.265625 C 16.570312 -11.203125 16.765625 -9.945312 16.765625 -8.5 C 16.765625 -7.113281 16.582031 -5.863281 16.21875 -4.75 C 15.707031 -3.1875 14.835938 -1.957031 13.609375 -1.0625 C 12.378906 -0.175781 10.921875 0.265625 9.234375 0.265625 Z M 9.234375 -3.03125 C 10.046875 -3.03125 10.738281 -3.257812 11.3125 -3.71875 C 11.894531 -4.1875 12.3125 -4.835938 12.5625 -5.671875 C 12.800781 -6.367188 12.921875 -7.289062 12.921875 -8.4375 C 12.921875 -9.507812 12.8125 -10.429688 12.59375 -11.203125 C 12.34375 -12.035156 11.914062 -12.675781 11.3125 -13.125 C 10.707031 -13.582031 9.988281 -13.8125 9.15625 -13.8125 C 8.320312 -13.8125 7.609375 -13.582031 7.015625 -13.125 C 6.421875 -12.675781 6.003906 -12.035156 5.765625 -11.203125 C 5.546875 -10.429688 5.4375 -9.507812 5.4375 -8.4375 C 5.4375 -7.363281 5.546875 -6.441406 5.765625 -5.671875 C 6.003906 -4.835938 6.425781 -4.1875 7.03125 -3.71875 C 7.632812 -3.257812 8.367188 -3.03125 9.234375 -3.03125 Z M 9.234375 -3.03125 "/></g></g></g><g fill="#2a79df" fill-opacity="1"><g transform="translate(623.973953, 556.631869)"><g><path d="M 2.609375 0 C 2.253906 0 2.078125 -0.175781 2.078125 -0.53125 L 2.078125 -22.546875 C 2.078125 -22.890625 2.253906 -23.0625 2.609375 -23.0625 L 5.375 -23.0625 C 5.726562 -23.0625 5.90625 -22.890625 5.90625 -22.546875 L 5.90625 -0.53125 C 5.90625 -0.175781 5.726562 0 5.375 0 Z M 2.609375 0 "/></g></g></g><g fill="#2a79df" fill-opacity="1"><g transform="translate(631.975551, 556.631869)"><g><path d="M 12 -16.3125 C 12 -16.664062 12.171875 -16.84375 12.515625 -16.84375 L 15.25 -16.84375 C 15.601562 -16.84375 15.78125 -16.664062 15.78125 -16.3125 L 15.78125 -0.53125 C 15.78125 -0.175781 15.601562 0 15.25 0 L 12.515625 0 C 12.171875 0 12 -0.175781 12 -0.53125 L 12 -1.390625 C 12 -1.472656 11.96875 -1.523438 11.90625 -1.546875 C 11.851562 -1.566406 11.804688 -1.535156 11.765625 -1.453125 C 10.890625 -0.328125 9.550781 0.234375 7.75 0.234375 C 6.070312 0.234375 4.664062 -0.25 3.53125 -1.21875 C 2.40625 -2.1875 1.84375 -3.5625 1.84375 -5.34375 L 1.84375 -16.3125 C 1.84375 -16.664062 2.019531 -16.84375 2.375 -16.84375 L 5.140625 -16.84375 C 5.492188 -16.84375 5.671875 -16.664062 5.671875 -16.3125 L 5.671875 -6.421875 C 5.671875 -5.390625 5.9375 -4.566406 6.46875 -3.953125 C 7.007812 -3.335938 7.765625 -3.03125 8.734375 -3.03125 C 9.722656 -3.03125 10.515625 -3.335938 11.109375 -3.953125 C 11.703125 -4.566406 12 -5.390625 12 -6.421875 Z M 12 -16.3125 "/></g></g></g><g fill="#2a79df" fill-opacity="1"><g transform="translate(649.789791, 556.631869)"><g><path d="M 10.96875 -14.265625 C 10.96875 -13.910156 10.796875 -13.734375 10.453125 -13.734375 L 7.25 -13.734375 C 7.113281 -13.734375 7.046875 -13.671875 7.046875 -13.546875 L 7.046875 -5.765625 C 7.046875 -4.910156 7.226562 -4.296875 7.59375 -3.921875 C 7.957031 -3.546875 8.535156 -3.359375 9.328125 -3.359375 L 10.1875 -3.359375 C 10.53125 -3.359375 10.703125 -3.179688 10.703125 -2.828125 L 10.703125 -0.625 C 10.703125 -0.269531 10.53125 -0.0820312 10.1875 -0.0625 L 8.59375 -0.03125 C 6.863281 -0.03125 5.566406 -0.332031 4.703125 -0.9375 C 3.847656 -1.539062 3.410156 -2.664062 3.390625 -4.3125 L 3.390625 -13.546875 C 3.390625 -13.671875 3.328125 -13.734375 3.203125 -13.734375 L 1.484375 -13.734375 C 1.128906 -13.734375 0.953125 -13.910156 0.953125 -14.265625 L 0.953125 -16.3125 C 0.953125 -16.664062 1.128906 -16.84375 1.484375 -16.84375 L 3.203125 -16.84375 C 3.328125 -16.84375 3.390625 -16.90625 3.390625 -17.03125 L 3.390625 -20.734375 C 3.390625 -21.078125 3.566406 -21.25 3.921875 -21.25 L 6.53125 -21.25 C 6.875 -21.25 7.046875 -21.078125 7.046875 -20.734375 L 7.046875 -17.03125 C 7.046875 -16.90625 7.113281 -16.84375 7.25 -16.84375 L 10.453125 -16.84375 C 10.796875 -16.84375 10.96875 -16.664062 10.96875 -16.3125 Z M 10.96875 -14.265625 "/></g></g></g><g fill="#2a79df" fill-opacity="1"><g transform="translate(662.104983, 556.631869)"><g><path d="M 4.21875 -18.953125 C 3.488281 -18.953125 2.894531 -19.175781 2.4375 -19.625 C 1.976562 -20.070312 1.75 -20.648438 1.75 -21.359375 C 1.75 -22.054688 1.976562 -22.625 2.4375 -23.0625 C 2.894531 -23.5 3.488281 -23.71875 4.21875 -23.71875 C 4.945312 -23.71875 5.535156 -23.5 5.984375 -23.0625 C 6.429688 -22.625 6.65625 -22.054688 6.65625 -21.359375 C 6.65625 -20.648438 6.429688 -20.070312 5.984375 -19.625 C 5.535156 -19.175781 4.945312 -18.953125 4.21875 -18.953125 Z M 2.828125 0 C 2.484375 0 2.3125 -0.175781 2.3125 -0.53125 L 2.3125 -16.3125 C 2.3125 -16.664062 2.484375 -16.84375 2.828125 -16.84375 L 5.609375 -16.84375 C 5.953125 -16.84375 6.125 -16.664062 6.125 -16.3125 L 6.125 -0.53125 C 6.125 -0.175781 5.953125 0 5.609375 0 Z M 2.828125 0 "/></g></g></g><g fill="#2a79df" fill-opacity="1"><g transform="translate(670.501717, 556.631869)"><g><path d="M 9.234375 0.265625 C 7.492188 0.265625 5.992188 -0.171875 4.734375 -1.046875 C 3.484375 -1.929688 2.617188 -3.15625 2.140625 -4.71875 C 1.765625 -5.789062 1.578125 -7.039062 1.578125 -8.46875 C 1.578125 -9.875 1.753906 -11.125 2.109375 -12.21875 C 2.609375 -13.757812 3.484375 -14.957031 4.734375 -15.8125 C 5.992188 -16.675781 7.503906 -17.109375 9.265625 -17.109375 C 10.929688 -17.109375 12.375 -16.675781 13.59375 -15.8125 C 14.8125 -14.957031 15.675781 -13.773438 16.1875 -12.265625 C 16.570312 -11.203125 16.765625 -9.945312 16.765625 -8.5 C 16.765625 -7.113281 16.582031 -5.863281 16.21875 -4.75 C 15.707031 -3.1875 14.835938 -1.957031 13.609375 -1.0625 C 12.378906 -0.175781 10.921875 0.265625 9.234375 0.265625 Z M 9.234375 -3.03125 C 10.046875 -3.03125 10.738281 -3.257812 11.3125 -3.71875 C 11.894531 -4.1875 12.3125 -4.835938 12.5625 -5.671875 C 12.800781 -6.367188 12.921875 -7.289062 12.921875 -8.4375 C 12.921875 -9.507812 12.8125 -10.429688 12.59375 -11.203125 C 12.34375 -12.035156 11.914062 -12.675781 11.3125 -13.125 C 10.707031 -13.582031 9.988281 -13.8125 9.15625 -13.8125 C 8.320312 -13.8125 7.609375 -13.582031 7.015625 -13.125 C 6.421875 -12.675781 6.003906 -12.035156 5.765625 -11.203125 C 5.546875 -10.429688 5.4375 -9.507812 5.4375 -8.4375 C 5.4375 -7.363281 5.546875 -6.441406 5.765625 -5.671875 C 6.003906 -4.835938 6.425781 -4.1875 7.03125 -3.71875 C 7.632812 -3.257812 8.367188 -3.03125 9.234375 -3.03125 Z M 9.234375 -3.03125 "/></g></g></g><g fill="#2a79df" fill-opacity="1"><g transform="translate(688.842804, 556.631869)"><g><path d="M 10.109375 -17.109375 C 11.910156 -17.109375 13.34375 -16.578125 14.40625 -15.515625 C 15.476562 -14.460938 16.015625 -13.023438 16.015625 -11.203125 L 16.015625 -0.53125 C 16.015625 -0.175781 15.835938 0 15.484375 0 L 12.71875 0 C 12.363281 0 12.1875 -0.175781 12.1875 -0.53125 L 12.1875 -10.40625 C 12.1875 -11.414062 11.894531 -12.234375 11.3125 -12.859375 C 10.738281 -13.492188 9.976562 -13.8125 9.03125 -13.8125 C 8.082031 -13.8125 7.316406 -13.503906 6.734375 -12.890625 C 6.148438 -12.273438 5.859375 -11.460938 5.859375 -10.453125 L 5.859375 -0.53125 C 5.859375 -0.175781 5.6875 0 5.34375 0 L 2.578125 0 C 2.222656 0 2.046875 -0.175781 2.046875 -0.53125 L 2.046875 -16.3125 C 2.046875 -16.664062 2.222656 -16.84375 2.578125 -16.84375 L 5.34375 -16.84375 C 5.6875 -16.84375 5.859375 -16.664062 5.859375 -16.3125 L 5.859375 -15.421875 C 5.859375 -15.335938 5.878906 -15.28125 5.921875 -15.25 C 5.972656 -15.226562 6.019531 -15.253906 6.0625 -15.328125 C 6.988281 -16.515625 8.335938 -17.109375 10.109375 -17.109375 Z M 10.109375 -17.109375 "/></g></g></g><g fill="#2a79df" fill-opacity="1"><g transform="translate(706.755834, 556.631869)"><g><path d="M 8.34375 0.203125 C 6.957031 0.203125 5.738281 0 4.6875 -0.40625 C 3.644531 -0.8125 2.835938 -1.367188 2.265625 -2.078125 C 1.703125 -2.796875 1.421875 -3.597656 1.421875 -4.484375 L 1.421875 -4.640625 C 1.421875 -4.992188 1.59375 -5.171875 1.9375 -5.171875 L 4.578125 -5.171875 C 4.929688 -5.171875 5.109375 -5.09375 5.109375 -4.9375 L 5.109375 -4.71875 C 5.109375 -4.164062 5.410156 -3.6875 6.015625 -3.28125 C 6.617188 -2.875 7.378906 -2.671875 8.296875 -2.671875 C 9.179688 -2.671875 9.894531 -2.847656 10.4375 -3.203125 C 10.988281 -3.566406 11.265625 -4.023438 11.265625 -4.578125 C 11.265625 -5.085938 11.039062 -5.46875 10.59375 -5.71875 C 10.144531 -5.96875 9.414062 -6.238281 8.40625 -6.53125 L 7.15625 -6.921875 C 6.03125 -7.253906 5.082031 -7.601562 4.3125 -7.96875 C 3.539062 -8.34375 2.890625 -8.851562 2.359375 -9.5 C 1.835938 -10.15625 1.578125 -10.988281 1.578125 -12 C 1.578125 -13.53125 2.175781 -14.75 3.375 -15.65625 C 4.570312 -16.570312 6.160156 -17.03125 8.140625 -17.03125 C 9.484375 -17.03125 10.660156 -16.816406 11.671875 -16.390625 C 12.679688 -15.960938 13.460938 -15.367188 14.015625 -14.609375 C 14.578125 -13.859375 14.859375 -13 14.859375 -12.03125 C 14.859375 -11.914062 14.804688 -11.816406 14.703125 -11.734375 C 14.609375 -11.660156 14.484375 -11.625 14.328125 -11.625 L 11.796875 -11.625 C 11.441406 -11.625 11.265625 -11.691406 11.265625 -11.828125 L 11.265625 -12.03125 C 11.265625 -12.601562 10.984375 -13.078125 10.421875 -13.453125 C 9.867188 -13.835938 9.109375 -14.03125 8.140625 -14.03125 C 7.285156 -14.03125 6.585938 -13.867188 6.046875 -13.546875 C 5.503906 -13.234375 5.234375 -12.789062 5.234375 -12.21875 C 5.234375 -11.695312 5.484375 -11.296875 5.984375 -11.015625 C 6.492188 -10.742188 7.34375 -10.441406 8.53125 -10.109375 L 9.296875 -9.921875 C 10.484375 -9.566406 11.46875 -9.210938 12.25 -8.859375 C 13.039062 -8.515625 13.710938 -8.007812 14.265625 -7.34375 C 14.816406 -6.6875 15.09375 -5.84375 15.09375 -4.8125 C 15.09375 -3.25 14.476562 -2.019531 13.25 -1.125 C 12.019531 -0.238281 10.382812 0.203125 8.34375 0.203125 Z M 8.34375 0.203125 "/></g></g></g></svg>