<svg xmlns="http://www.w3.org/2000/svg" xmlns:xlink="http://www.w3.org/1999/xlink" width="500" zoomAndPan="magnify" viewBox="0 0 375 374.999991" height="500" preserveAspectRatio="xMidYMid meet" version="1.0"><defs><g/><clipPath id="b63e76d376"><path d="M 168 194 L 177 194 L 177 203.648438 L 168 203.648438 Z M 168 194 " clip-rule="nonzero"/></clipPath><clipPath id="09db50a78e"><path d="M 129.558594 106.816406 L 245.375 106.816406 L 245.375 203.648438 L 129.558594 203.648438 Z M 129.558594 106.816406 " clip-rule="nonzero"/></clipPath></defs><path fill="#2a79df" d="M 159.71875 141.816406 L 170.449219 141.816406 L 170.449219 152.546875 L 159.71875 152.546875 Z M 159.71875 141.816406 " fill-opacity="1" fill-rule="evenodd"/><path fill="#ffffff" d="M 188.652344 133.386719 L 197.269531 133.386719 L 197.269531 142.011719 L 188.652344 142.011719 Z M 188.652344 133.386719 " fill-opacity="1" fill-rule="evenodd"/><path fill="#2a79df" d="M 171.984375 154.363281 L 180.601562 154.363281 L 180.601562 162.984375 L 171.984375 162.984375 Z M 171.984375 154.363281 " fill-opacity="1" fill-rule="evenodd"/><path fill="#ffffff" d="M 161.15625 163.753906 L 165.46875 163.753906 L 165.46875 168.0625 L 161.15625 168.0625 Z M 161.15625 163.753906 " fill-opacity="1" fill-rule="evenodd"/><path fill="#ffffff" d="M 157.753906 130.277344 L 162.070312 130.277344 L 162.070312 134.585938 L 157.753906 134.585938 Z M 157.753906 130.277344 " fill-opacity="1" fill-rule="evenodd"/><path fill="#ffffff" d="M 178.828125 142.34375 L 183.140625 142.34375 L 183.140625 146.65625 L 178.828125 146.65625 Z M 178.828125 142.34375 " fill-opacity="1" fill-rule="evenodd"/><path fill="#ffffff" d="M 201.820312 129.746094 L 206.132812 129.746094 L 206.132812 134.054688 L 201.820312 134.054688 Z M 201.820312 129.746094 " fill-opacity="1" fill-rule="evenodd"/><path fill="#ffffff" d="M 198.269531 121.699219 L 204.320312 121.699219 L 204.320312 127.757812 L 198.269531 127.757812 Z M 198.269531 121.699219 " fill-opacity="1" fill-rule="evenodd"/><path fill="#ffffff" d="M 176.386719 112.695312 L 182.445312 112.695312 L 182.445312 118.75 L 176.386719 118.75 Z M 176.386719 112.695312 " fill-opacity="1" fill-rule="evenodd"/><path fill="#ffffff" d="M 191.066406 119.378906 L 195.375 119.378906 L 195.375 123.6875 L 191.066406 123.6875 Z M 191.066406 119.378906 " fill-opacity="1" fill-rule="evenodd"/><path fill="#ffffff" d="M 212.9375 132.574219 L 217.246094 132.574219 L 217.246094 136.882812 L 212.9375 136.882812 Z M 212.9375 132.574219 " fill-opacity="1" fill-rule="evenodd"/><path fill="#2a79df" d="M 188.59375 146.136719 L 199.617188 146.136719 L 199.617188 157.160156 L 188.59375 157.160156 Z M 188.59375 146.136719 " fill-opacity="1" fill-rule="evenodd"/><path fill="#2a79df" d="M 165.554688 174.34375 L 178.203125 174.34375 L 178.203125 186.992188 L 165.554688 186.992188 Z M 165.554688 174.34375 " fill-opacity="1" fill-rule="evenodd"/><path fill="#ffffff" d="M 181.410156 166.167969 L 190.03125 166.167969 L 190.03125 174.792969 L 181.410156 174.792969 Z M 181.410156 166.167969 " fill-opacity="1" fill-rule="evenodd"/><path fill="#2a79df" d="M 194.992188 177.40625 L 203.613281 177.40625 L 203.613281 186.023438 L 194.992188 186.023438 Z M 194.992188 177.40625 " fill-opacity="1" fill-rule="evenodd"/><g clip-path="url(#b63e76d376)"><path fill="#ffffff" d="M 168.351562 194.902344 L 176.96875 194.902344 L 176.96875 203.523438 L 168.351562 203.523438 Z M 168.351562 194.902344 " fill-opacity="1" fill-rule="evenodd"/></g><path fill="#ffffff" d="M 201.527344 142.398438 L 210.144531 142.398438 L 210.144531 151.019531 L 201.527344 151.019531 Z M 201.527344 142.398438 " fill-opacity="1" fill-rule="evenodd"/><path fill="#ffffff" d="M 171.808594 165.710938 L 176.121094 165.710938 L 176.121094 170.023438 L 171.808594 170.023438 Z M 171.808594 165.710938 " fill-opacity="1" fill-rule="evenodd"/><path fill="#ffffff" d="M 186.414062 159.394531 L 190.726562 159.394531 L 190.726562 163.703125 L 186.414062 163.703125 Z M 186.414062 159.394531 " fill-opacity="1" fill-rule="evenodd"/><path fill="#ffffff" d="M 182.703125 180.730469 L 190.425781 180.730469 L 190.425781 188.445312 L 182.703125 188.445312 Z M 182.703125 180.730469 " fill-opacity="1" fill-rule="evenodd"/><path fill="#ffffff" d="M 180.222656 196.195312 L 185.332031 196.195312 L 185.332031 201.300781 L 180.222656 201.300781 Z M 180.222656 196.195312 " fill-opacity="1" fill-rule="evenodd"/><path fill="#ffffff" d="M 192.894531 163.488281 L 200.609375 163.488281 L 200.609375 171.203125 L 192.894531 171.203125 Z M 192.894531 163.488281 " fill-opacity="1" fill-rule="evenodd"/><path fill="#ffffff" d="M 202.554688 156.171875 L 210.277344 156.171875 L 210.277344 163.890625 L 202.554688 163.890625 Z M 202.554688 156.171875 " fill-opacity="1" fill-rule="evenodd"/><path fill="#2a79df" d="M 170.257812 123.808594 L 182.898438 123.808594 L 182.898438 136.453125 L 170.257812 136.453125 Z M 170.257812 123.808594 " fill-opacity="1" fill-rule="evenodd"/><g clip-path="url(#09db50a78e)"><path fill="#ffffff" d="M 129.742188 151.039062 C 132.316406 150.972656 134.429688 150.28125 136.058594 148.945312 C 137.671875 147.621094 138.757812 145.804688 139.304688 143.5 C 139.839844 141.1875 140.113281 137.214844 140.148438 131.617188 C 140.179688 126.019531 140.285156 122.328125 140.457031 120.558594 C 140.765625 117.746094 141.3125 115.472656 142.136719 113.761719 C 142.960938 112.0625 143.980469 110.6875 145.179688 109.65625 C 146.398438 108.636719 147.945312 107.851562 149.816406 107.320312 C 151.085938 106.996094 153.164062 106.820312 156.046875 106.820312 L 158.859375 106.820312 L 158.859375 114.722656 L 157.296875 114.722656 C 153.8125 114.722656 151.507812 115.335938 150.359375 116.613281 C 149.226562 117.867188 148.660156 120.664062 148.660156 125.03125 C 148.660156 133.824219 148.46875 139.371094 148.09375 141.691406 C 147.496094 145.28125 146.460938 148.046875 145 149.984375 C 143.542969 151.945312 141.257812 153.660156 138.128906 155.171875 C 141.824219 156.714844 144.503906 159.066406 146.164062 162.246094 C 147.816406 165.402344 148.652344 170.605469 148.652344 177.824219 C 148.652344 184.351562 148.703125 188.246094 148.84375 189.484375 C 149.121094 191.769531 149.785156 193.371094 150.886719 194.277344 C 151.972656 195.167969 154.113281 195.628906 157.292969 195.628906 L 158.855469 195.628906 L 158.855469 203.53125 L 156.042969 203.53125 C 152.757812 203.53125 150.375 203.257812 148.898438 202.722656 C 146.75 201.953125 144.980469 200.699219 143.574219 198.980469 C 142.164062 197.242188 141.238281 195.0625 140.824219 192.402344 C 140.414062 189.757812 140.171875 185.414062 140.136719 179.367188 C 140.097656 173.339844 139.828125 169.164062 139.292969 166.851562 C 138.746094 164.53125 137.660156 162.714844 136.046875 161.371094 C 134.417969 160.015625 132.304688 159.308594 129.730469 159.257812 L 129.730469 151.050781 Z M 245.257812 151.039062 L 245.257812 159.246094 C 242.683594 159.296875 240.570312 160.003906 238.9375 161.359375 C 237.324219 162.699219 236.242188 164.515625 235.695312 166.800781 C 235.164062 169.105469 234.867188 173.050781 234.851562 178.648438 C 234.8125 184.265625 234.714844 187.941406 234.542969 189.726562 C 234.234375 192.578125 233.679688 194.84375 232.859375 196.542969 C 232.035156 198.242188 231.027344 199.597656 229.820312 200.613281 C 228.601562 201.640625 227.054688 202.417969 225.183594 202.945312 C 223.914062 203.320312 221.832031 203.511719 218.953125 203.511719 L 216.132812 203.511719 L 216.132812 195.613281 L 217.695312 195.613281 C 221.179688 195.613281 223.484375 194.976562 224.636719 193.722656 C 225.769531 192.464844 226.335938 189.632812 226.335938 185.238281 C 226.335938 176.855469 226.488281 171.53125 226.796875 169.28125 C 227.332031 165.578125 228.410156 162.582031 230.011719 160.355469 C 231.625 158.136719 233.90625 156.402344 236.863281 155.152344 C 232.996094 153.316406 230.289062 150.878906 228.703125 147.835938 C 227.121094 144.792969 226.335938 139.679688 226.335938 132.46875 C 226.335938 125.921875 226.265625 122.023438 226.09375 120.738281 C 225.855469 118.484375 225.203125 116.925781 224.097656 116.035156 C 223.015625 115.160156 220.871094 114.710938 217.695312 114.710938 L 216.132812 114.710938 L 216.132812 106.808594 L 218.953125 106.808594 C 222.234375 106.808594 224.617188 107.066406 226.09375 107.617188 C 228.242188 108.355469 230.011719 109.59375 231.421875 111.324219 C 232.832031 113.070312 233.753906 115.269531 234.167969 117.917969 C 234.578125 120.582031 234.820312 124.925781 234.855469 130.953125 C 234.875 137 235.164062 141.15625 235.699219 143.457031 C 236.246094 145.761719 237.332031 147.578125 238.945312 148.921875 C 240.578125 150.261719 242.6875 150.964844 245.261719 151.03125 Z M 245.257812 151.039062 " fill-opacity="1" fill-rule="nonzero"/></g><g fill="#ffffff" fill-opacity="1"><g transform="translate(69.549347, 240.220123)"><g><path d="M 2.90625 0 C 2.476562 0 2.265625 -0.207031 2.265625 -0.625 L 2.265625 -25.40625 C 2.265625 -25.832031 2.476562 -26.046875 2.90625 -26.046875 L 12.015625 -26.046875 C 13.878906 -26.046875 15.507812 -25.71875 16.90625 -25.0625 C 18.3125 -24.40625 19.394531 -23.476562 20.15625 -22.28125 C 20.925781 -21.09375 21.3125 -19.71875 21.3125 -18.15625 L 21.3125 -7.890625 C 21.3125 -6.328125 20.925781 -4.945312 20.15625 -3.75 C 19.394531 -2.5625 18.3125 -1.640625 16.90625 -0.984375 C 15.507812 -0.328125 13.878906 0 12.015625 0 Z M 7.515625 -4.71875 C 7.515625 -4.570312 7.585938 -4.5 7.734375 -4.5 L 12.203125 -4.5 C 13.335938 -4.5 14.257812 -4.882812 14.96875 -5.65625 C 15.675781 -6.425781 16.046875 -7.457031 16.078125 -8.75 L 16.078125 -17.296875 C 16.078125 -18.585938 15.722656 -19.617188 15.015625 -20.390625 C 14.304688 -21.160156 13.359375 -21.546875 12.171875 -21.546875 L 7.734375 -21.546875 C 7.585938 -21.546875 7.515625 -21.46875 7.515625 -21.3125 Z M 7.515625 -4.71875 "/></g></g></g><g fill="#ffffff" fill-opacity="1"><g transform="translate(93.985943, 240.220123)"><g><path d="M 4.84375 -20.953125 C 3.894531 -20.953125 3.125 -21.238281 2.53125 -21.8125 C 1.9375 -22.394531 1.640625 -23.148438 1.640625 -24.078125 C 1.640625 -24.992188 1.9375 -25.742188 2.53125 -26.328125 C 3.125 -26.910156 3.894531 -27.203125 4.84375 -27.203125 C 5.800781 -27.203125 6.570312 -26.914062 7.15625 -26.34375 C 7.738281 -25.769531 8.03125 -25.015625 8.03125 -24.078125 C 8.03125 -23.128906 7.738281 -22.367188 7.15625 -21.796875 C 6.570312 -21.234375 5.800781 -20.953125 4.84375 -20.953125 Z M 2.859375 0 C 2.441406 0 2.234375 -0.207031 2.234375 -0.625 L 2.234375 -18.484375 C 2.234375 -18.910156 2.441406 -19.125 2.859375 -19.125 L 6.84375 -19.125 C 7.269531 -19.125 7.484375 -18.910156 7.484375 -18.484375 L 7.484375 -0.625 C 7.484375 -0.207031 7.269531 0 6.84375 0 Z M 2.859375 0 "/></g></g></g><g fill="#ffffff" fill-opacity="1"><g transform="translate(105.107247, 240.220123)"><g><path d="M 13.609375 -18.484375 C 13.609375 -18.910156 13.820312 -19.125 14.25 -19.125 L 18.234375 -19.125 C 18.648438 -19.125 18.859375 -18.910156 18.859375 -18.484375 L 18.859375 -1.71875 C 18.859375 1.53125 17.925781 3.847656 16.0625 5.234375 C 14.207031 6.628906 11.816406 7.328125 8.890625 7.328125 C 8.066406 7.328125 7.132812 7.265625 6.09375 7.140625 C 5.726562 7.117188 5.546875 6.894531 5.546875 6.46875 L 5.6875 3.015625 C 5.6875 2.816406 5.753906 2.660156 5.890625 2.546875 C 6.023438 2.429688 6.195312 2.398438 6.40625 2.453125 C 7.320312 2.578125 8.078125 2.640625 8.671875 2.640625 C 10.253906 2.640625 11.472656 2.289062 12.328125 1.59375 C 13.179688 0.90625 13.609375 -0.207031 13.609375 -1.75 C 13.609375 -1.820312 13.582031 -1.863281 13.53125 -1.875 C 13.488281 -1.882812 13.429688 -1.851562 13.359375 -1.78125 C 12.441406 -0.789062 11.078125 -0.296875 9.265625 -0.296875 C 7.648438 -0.296875 6.164062 -0.6875 4.8125 -1.46875 C 3.46875 -2.25 2.507812 -3.507812 1.9375 -5.25 C 1.5625 -6.382812 1.375 -7.859375 1.375 -9.671875 C 1.375 -11.609375 1.597656 -13.179688 2.046875 -14.390625 C 2.566406 -15.910156 3.445312 -17.128906 4.6875 -18.046875 C 5.925781 -18.960938 7.363281 -19.421875 9 -19.421875 C 10.863281 -19.421875 12.316406 -18.863281 13.359375 -17.75 C 13.429688 -17.675781 13.488281 -17.648438 13.53125 -17.671875 C 13.582031 -17.691406 13.609375 -17.753906 13.609375 -17.859375 Z M 13.3125 -6.65625 C 13.507812 -7.40625 13.609375 -8.421875 13.609375 -9.703125 C 13.609375 -10.472656 13.582031 -11.066406 13.53125 -11.484375 C 13.488281 -11.910156 13.40625 -12.3125 13.28125 -12.6875 C 13.0625 -13.351562 12.691406 -13.890625 12.171875 -14.296875 C 11.648438 -14.710938 11.003906 -14.921875 10.234375 -14.921875 C 9.484375 -14.921875 8.847656 -14.710938 8.328125 -14.296875 C 7.804688 -13.890625 7.425781 -13.351562 7.1875 -12.6875 C 6.832031 -11.9375 6.65625 -10.929688 6.65625 -9.671875 C 6.65625 -8.285156 6.804688 -7.296875 7.109375 -6.703125 C 7.328125 -6.023438 7.710938 -5.484375 8.265625 -5.078125 C 8.828125 -4.671875 9.492188 -4.46875 10.265625 -4.46875 C 11.054688 -4.46875 11.710938 -4.671875 12.234375 -5.078125 C 12.753906 -5.484375 13.113281 -6.007812 13.3125 -6.65625 Z M 13.3125 -6.65625 "/></g></g></g><g fill="#ffffff" fill-opacity="1"><g transform="translate(127.237837, 240.220123)"><g><path d="M 4.84375 -20.953125 C 3.894531 -20.953125 3.125 -21.238281 2.53125 -21.8125 C 1.9375 -22.394531 1.640625 -23.148438 1.640625 -24.078125 C 1.640625 -24.992188 1.9375 -25.742188 2.53125 -26.328125 C 3.125 -26.910156 3.894531 -27.203125 4.84375 -27.203125 C 5.800781 -27.203125 6.570312 -26.914062 7.15625 -26.34375 C 7.738281 -25.769531 8.03125 -25.015625 8.03125 -24.078125 C 8.03125 -23.128906 7.738281 -22.367188 7.15625 -21.796875 C 6.570312 -21.234375 5.800781 -20.953125 4.84375 -20.953125 Z M 2.859375 0 C 2.441406 0 2.234375 -0.207031 2.234375 -0.625 L 2.234375 -18.484375 C 2.234375 -18.910156 2.441406 -19.125 2.859375 -19.125 L 6.84375 -19.125 C 7.269531 -19.125 7.484375 -18.910156 7.484375 -18.484375 L 7.484375 -0.625 C 7.484375 -0.207031 7.269531 0 6.84375 0 Z M 2.859375 0 "/></g></g></g><g fill="#ffffff" fill-opacity="1"><g transform="translate(138.359143, 240.220123)"><g><path d="M 12.90625 -15.546875 C 12.90625 -15.128906 12.695312 -14.921875 12.28125 -14.921875 L 8.921875 -14.921875 C 8.773438 -14.921875 8.703125 -14.84375 8.703125 -14.6875 L 8.703125 -7 C 8.703125 -6.175781 8.867188 -5.570312 9.203125 -5.1875 C 9.535156 -4.800781 10.078125 -4.609375 10.828125 -4.609375 L 11.875 -4.609375 C 12.289062 -4.609375 12.5 -4.398438 12.5 -3.984375 L 12.5 -0.78125 C 12.5 -0.382812 12.289062 -0.160156 11.875 -0.109375 C 10.925781 -0.0546875 10.242188 -0.03125 9.828125 -0.03125 C 7.765625 -0.03125 6.222656 -0.378906 5.203125 -1.078125 C 4.191406 -1.773438 3.671875 -3.066406 3.640625 -4.953125 L 3.640625 -14.6875 C 3.640625 -14.84375 3.566406 -14.921875 3.421875 -14.921875 L 1.53125 -14.921875 C 1.101562 -14.921875 0.890625 -15.128906 0.890625 -15.546875 L 0.890625 -18.484375 C 0.890625 -18.910156 1.101562 -19.125 1.53125 -19.125 L 3.421875 -19.125 C 3.566406 -19.125 3.640625 -19.195312 3.640625 -19.34375 L 3.640625 -23.546875 C 3.640625 -23.972656 3.851562 -24.1875 4.28125 -24.1875 L 8.078125 -24.1875 C 8.492188 -24.1875 8.703125 -23.972656 8.703125 -23.546875 L 8.703125 -19.34375 C 8.703125 -19.195312 8.773438 -19.125 8.921875 -19.125 L 12.28125 -19.125 C 12.695312 -19.125 12.90625 -18.910156 12.90625 -18.484375 Z M 12.90625 -15.546875 "/></g></g></g><g fill="#ffffff" fill-opacity="1"><g transform="translate(153.943669, 240.220123)"><g><path d="M 9.59375 -19.421875 C 11.207031 -19.421875 12.644531 -19.140625 13.90625 -18.578125 C 15.175781 -18.023438 16.164062 -17.265625 16.875 -16.296875 C 17.582031 -15.328125 17.9375 -14.25 17.9375 -13.0625 L 17.9375 -0.625 C 17.9375 -0.207031 17.722656 0 17.296875 0 L 13.3125 0 C 12.894531 0 12.6875 -0.207031 12.6875 -0.625 L 12.6875 -1.53125 C 12.6875 -1.625 12.660156 -1.675781 12.609375 -1.6875 C 12.554688 -1.707031 12.492188 -1.675781 12.421875 -1.59375 C 11.285156 -0.332031 9.585938 0.296875 7.328125 0.296875 C 5.421875 0.296875 3.882812 -0.171875 2.71875 -1.109375 C 1.550781 -2.054688 0.96875 -3.445312 0.96875 -5.28125 C 0.96875 -7.1875 1.632812 -8.664062 2.96875 -9.71875 C 4.3125 -10.78125 6.222656 -11.3125 8.703125 -11.3125 L 12.46875 -11.3125 C 12.613281 -11.3125 12.6875 -11.382812 12.6875 -11.53125 L 12.6875 -12.3125 C 12.6875 -13.132812 12.429688 -13.773438 11.921875 -14.234375 C 11.410156 -14.691406 10.671875 -14.921875 9.703125 -14.921875 C 8.960938 -14.921875 8.347656 -14.796875 7.859375 -14.546875 C 7.378906 -14.296875 7.050781 -13.945312 6.875 -13.5 C 6.726562 -13.15625 6.484375 -12.992188 6.140625 -13.015625 L 2.015625 -13.546875 C 1.816406 -13.566406 1.660156 -13.617188 1.546875 -13.703125 C 1.429688 -13.796875 1.382812 -13.914062 1.40625 -14.0625 C 1.53125 -15.082031 1.957031 -16 2.6875 -16.8125 C 3.425781 -17.632812 4.394531 -18.273438 5.59375 -18.734375 C 6.800781 -19.191406 8.132812 -19.421875 9.59375 -19.421875 Z M 8.859375 -3.609375 C 9.921875 -3.609375 10.820312 -3.890625 11.5625 -4.453125 C 12.3125 -5.023438 12.6875 -5.757812 12.6875 -6.65625 L 12.6875 -7.96875 C 12.6875 -8.113281 12.613281 -8.1875 12.46875 -8.1875 L 9.828125 -8.1875 C 8.703125 -8.1875 7.816406 -7.972656 7.171875 -7.546875 C 6.535156 -7.128906 6.21875 -6.535156 6.21875 -5.765625 C 6.21875 -5.097656 6.457031 -4.570312 6.9375 -4.1875 C 7.414062 -3.800781 8.054688 -3.609375 8.859375 -3.609375 Z M 8.859375 -3.609375 "/></g></g></g><g fill="#ffffff" fill-opacity="1"><g transform="translate(175.032833, 240.220123)"><g><path d="M 2.640625 0 C 2.222656 0 2.015625 -0.207031 2.015625 -0.625 L 2.015625 -25.40625 C 2.015625 -25.832031 2.222656 -26.046875 2.640625 -26.046875 L 6.625 -26.046875 C 7.039062 -26.046875 7.25 -25.832031 7.25 -25.40625 L 7.25 -0.625 C 7.25 -0.207031 7.039062 0 6.625 0 Z M 2.640625 0 "/></g></g></g><g fill="#ffffff" fill-opacity="1"><g transform="translate(185.745013, 240.220123)"><g/></g></g><g fill="#ffffff" fill-opacity="1"><g transform="translate(194.634709, 240.220123)"><g><path d="M 2.90625 0 C 2.476562 0 2.265625 -0.207031 2.265625 -0.625 L 2.265625 -25.40625 C 2.265625 -25.832031 2.476562 -26.046875 2.90625 -26.046875 L 12.015625 -26.046875 C 13.878906 -26.046875 15.507812 -25.71875 16.90625 -25.0625 C 18.3125 -24.40625 19.394531 -23.476562 20.15625 -22.28125 C 20.925781 -21.09375 21.3125 -19.71875 21.3125 -18.15625 L 21.3125 -7.890625 C 21.3125 -6.328125 20.925781 -4.945312 20.15625 -3.75 C 19.394531 -2.5625 18.3125 -1.640625 16.90625 -0.984375 C 15.507812 -0.328125 13.878906 0 12.015625 0 Z M 7.515625 -4.71875 C 7.515625 -4.570312 7.585938 -4.5 7.734375 -4.5 L 12.203125 -4.5 C 13.335938 -4.5 14.257812 -4.882812 14.96875 -5.65625 C 15.675781 -6.425781 16.046875 -7.457031 16.078125 -8.75 L 16.078125 -17.296875 C 16.078125 -18.585938 15.722656 -19.617188 15.015625 -20.390625 C 14.304688 -21.160156 13.359375 -21.546875 12.171875 -21.546875 L 7.734375 -21.546875 C 7.585938 -21.546875 7.515625 -21.46875 7.515625 -21.3125 Z M 7.515625 -4.71875 "/></g></g></g><g fill="#ffffff" fill-opacity="1"><g transform="translate(219.071305, 240.220123)"><g><path d="M 11.15625 -4.125 C 12.789062 -4.195312 14.046875 -4.769531 14.921875 -5.84375 C 15.066406 -6.007812 15.226562 -6.09375 15.40625 -6.09375 C 15.550781 -6.09375 15.6875 -6.035156 15.8125 -5.921875 L 17.9375 -3.875 C 18.082031 -3.71875 18.15625 -3.566406 18.15625 -3.421875 C 18.15625 -3.242188 18.101562 -3.09375 18 -2.96875 C 17.1875 -1.957031 16.140625 -1.160156 14.859375 -0.578125 C 13.585938 0.00390625 12.191406 0.296875 10.671875 0.296875 C 8.390625 0.296875 6.5 -0.285156 5 -1.453125 C 3.5 -2.617188 2.488281 -4.21875 1.96875 -6.25 C 1.675781 -7.34375 1.53125 -8.492188 1.53125 -9.703125 C 1.53125 -11.148438 1.664062 -12.367188 1.9375 -13.359375 C 2.425781 -15.191406 3.421875 -16.664062 4.921875 -17.78125 C 6.429688 -18.894531 8.210938 -19.453125 10.265625 -19.453125 C 12.691406 -19.453125 14.617188 -18.734375 16.046875 -17.296875 C 17.472656 -15.859375 18.398438 -13.835938 18.828125 -11.234375 C 18.921875 -10.410156 18.992188 -9.503906 19.046875 -8.515625 C 19.046875 -8.097656 18.835938 -7.890625 18.421875 -7.890625 L 7 -7.890625 C 6.84375 -7.890625 6.765625 -7.8125 6.765625 -7.65625 C 6.835938 -7.132812 6.925781 -6.753906 7.03125 -6.515625 C 7.28125 -5.742188 7.769531 -5.148438 8.5 -4.734375 C 9.226562 -4.328125 10.113281 -4.125 11.15625 -4.125 Z M 10.1875 -14.921875 C 9.394531 -14.921875 8.734375 -14.726562 8.203125 -14.34375 C 7.671875 -13.957031 7.304688 -13.414062 7.109375 -12.71875 C 6.984375 -12.25 6.90625 -11.941406 6.875 -11.796875 C 6.851562 -11.640625 6.914062 -11.5625 7.0625 -11.5625 L 13.390625 -11.5625 C 13.515625 -11.5625 13.578125 -11.613281 13.578125 -11.71875 C 13.578125 -11.988281 13.53125 -12.273438 13.4375 -12.578125 C 13.207031 -13.296875 12.816406 -13.863281 12.265625 -14.28125 C 11.722656 -14.707031 11.03125 -14.921875 10.1875 -14.921875 Z M 10.1875 -14.921875 "/></g></g></g><g fill="#ffffff" fill-opacity="1"><g transform="translate(240.867154, 240.220123)"><g><path d="M 18.859375 -14.25 C 19.328125 -13.007812 19.5625 -11.472656 19.5625 -9.640625 C 19.5625 -7.847656 19.351562 -6.359375 18.9375 -5.171875 C 18.4375 -3.535156 17.535156 -2.210938 16.234375 -1.203125 C 14.929688 -0.203125 13.4375 0.296875 11.75 0.296875 C 9.945312 0.296875 8.535156 -0.375 7.515625 -1.71875 C 7.460938 -1.789062 7.40625 -1.816406 7.34375 -1.796875 C 7.28125 -1.785156 7.25 -1.734375 7.25 -1.640625 L 7.25 -0.625 C 7.25 -0.207031 7.039062 0 6.625 0 L 2.640625 0 C 2.222656 0 2.015625 -0.207031 2.015625 -0.625 L 2.015625 -25.40625 C 2.015625 -25.832031 2.222656 -26.046875 2.640625 -26.046875 L 6.625 -26.046875 C 7.039062 -26.046875 7.25 -25.832031 7.25 -25.40625 L 7.25 -17.75 C 7.25 -17.644531 7.28125 -17.578125 7.34375 -17.546875 C 7.40625 -17.523438 7.460938 -17.554688 7.515625 -17.640625 C 8.503906 -18.847656 9.914062 -19.453125 11.75 -19.453125 C 13.4375 -19.453125 14.90625 -18.976562 16.15625 -18.03125 C 17.414062 -17.09375 18.316406 -15.832031 18.859375 -14.25 Z M 13.28125 -5.875 C 13.800781 -6.84375 14.0625 -8.0625 14.0625 -9.53125 C 14.0625 -11.132812 13.765625 -12.4375 13.171875 -13.4375 C 12.578125 -14.375 11.707031 -14.84375 10.5625 -14.84375 C 9.519531 -14.84375 8.691406 -14.359375 8.078125 -13.390625 C 7.554688 -12.472656 7.296875 -11.195312 7.296875 -9.5625 C 7.296875 -8.019531 7.539062 -6.789062 8.03125 -5.875 C 8.625 -4.8125 9.46875 -4.28125 10.5625 -4.28125 C 11.78125 -4.28125 12.6875 -4.8125 13.28125 -5.875 Z M 13.28125 -5.875 "/></g></g></g><g fill="#ffffff" fill-opacity="1"><g transform="translate(263.034938, 240.220123)"><g><path d="M 13.09375 -18.484375 C 13.09375 -18.910156 13.304688 -19.125 13.734375 -19.125 L 17.703125 -19.125 C 18.128906 -19.125 18.34375 -18.910156 18.34375 -18.484375 L 18.34375 -0.625 C 18.34375 -0.207031 18.128906 0 17.703125 0 L 13.734375 0 C 13.304688 0 13.09375 -0.207031 13.09375 -0.625 L 13.09375 -1.640625 C 13.09375 -1.734375 13.0625 -1.785156 13 -1.796875 C 12.9375 -1.816406 12.878906 -1.789062 12.828125 -1.71875 C 11.867188 -0.394531 10.347656 0.265625 8.265625 0.265625 C 6.378906 0.265625 4.828125 -0.300781 3.609375 -1.4375 C 2.390625 -2.582031 1.78125 -4.1875 1.78125 -6.25 L 1.78125 -18.484375 C 1.78125 -18.910156 1.992188 -19.125 2.421875 -19.125 L 6.359375 -19.125 C 6.785156 -19.125 7 -18.910156 7 -18.484375 L 7 -7.546875 C 7 -6.554688 7.265625 -5.75 7.796875 -5.125 C 8.328125 -4.507812 9.0625 -4.203125 10 -4.203125 C 10.84375 -4.203125 11.535156 -4.457031 12.078125 -4.96875 C 12.628906 -5.476562 12.96875 -6.140625 13.09375 -6.953125 Z M 13.09375 -18.484375 "/></g></g></g><g fill="#ffffff" fill-opacity="1"><g transform="translate(284.756392, 240.220123)"><g><path d="M 13.609375 -18.484375 C 13.609375 -18.910156 13.820312 -19.125 14.25 -19.125 L 18.234375 -19.125 C 18.648438 -19.125 18.859375 -18.910156 18.859375 -18.484375 L 18.859375 -1.71875 C 18.859375 1.53125 17.925781 3.847656 16.0625 5.234375 C 14.207031 6.628906 11.816406 7.328125 8.890625 7.328125 C 8.066406 7.328125 7.132812 7.265625 6.09375 7.140625 C 5.726562 7.117188 5.546875 6.894531 5.546875 6.46875 L 5.6875 3.015625 C 5.6875 2.816406 5.753906 2.660156 5.890625 2.546875 C 6.023438 2.429688 6.195312 2.398438 6.40625 2.453125 C 7.320312 2.578125 8.078125 2.640625 8.671875 2.640625 C 10.253906 2.640625 11.472656 2.289062 12.328125 1.59375 C 13.179688 0.90625 13.609375 -0.207031 13.609375 -1.75 C 13.609375 -1.820312 13.582031 -1.863281 13.53125 -1.875 C 13.488281 -1.882812 13.429688 -1.851562 13.359375 -1.78125 C 12.441406 -0.789062 11.078125 -0.296875 9.265625 -0.296875 C 7.648438 -0.296875 6.164062 -0.6875 4.8125 -1.46875 C 3.46875 -2.25 2.507812 -3.507812 1.9375 -5.25 C 1.5625 -6.382812 1.375 -7.859375 1.375 -9.671875 C 1.375 -11.609375 1.597656 -13.179688 2.046875 -14.390625 C 2.566406 -15.910156 3.445312 -17.128906 4.6875 -18.046875 C 5.925781 -18.960938 7.363281 -19.421875 9 -19.421875 C 10.863281 -19.421875 12.316406 -18.863281 13.359375 -17.75 C 13.429688 -17.675781 13.488281 -17.648438 13.53125 -17.671875 C 13.582031 -17.691406 13.609375 -17.753906 13.609375 -17.859375 Z M 13.3125 -6.65625 C 13.507812 -7.40625 13.609375 -8.421875 13.609375 -9.703125 C 13.609375 -10.472656 13.582031 -11.066406 13.53125 -11.484375 C 13.488281 -11.910156 13.40625 -12.3125 13.28125 -12.6875 C 13.0625 -13.351562 12.691406 -13.890625 12.171875 -14.296875 C 11.648438 -14.710938 11.003906 -14.921875 10.234375 -14.921875 C 9.484375 -14.921875 8.847656 -14.710938 8.328125 -14.296875 C 7.804688 -13.890625 7.425781 -13.351562 7.1875 -12.6875 C 6.832031 -11.9375 6.65625 -10.929688 6.65625 -9.671875 C 6.65625 -8.285156 6.804688 -7.296875 7.109375 -6.703125 C 7.328125 -6.023438 7.710938 -5.484375 8.265625 -5.078125 C 8.828125 -4.671875 9.492188 -4.46875 10.265625 -4.46875 C 11.054688 -4.46875 11.710938 -4.671875 12.234375 -5.078125 C 12.753906 -5.484375 13.113281 -6.007812 13.3125 -6.65625 Z M 13.3125 -6.65625 "/></g></g></g><g fill="#2a79df" fill-opacity="1"><g transform="translate(144.172811, 264.463639)"><g><path d="M 1.484375 0 C 1.304688 0 1.21875 -0.0859375 1.21875 -0.265625 L 1.21875 -11.421875 C 1.21875 -11.597656 1.304688 -11.6875 1.484375 -11.6875 L 2.890625 -11.6875 C 3.066406 -11.6875 3.15625 -11.597656 3.15625 -11.421875 L 3.15625 -0.265625 C 3.15625 -0.0859375 3.066406 0 2.890625 0 Z M 1.484375 0 "/></g></g></g><g fill="#2a79df" fill-opacity="1"><g transform="translate(148.540927, 264.463639)"><g><path d="M 8.828125 -11.6875 C 9.003906 -11.6875 9.09375 -11.597656 9.09375 -11.421875 L 9.09375 -10.265625 C 9.09375 -10.085938 9.003906 -10 8.828125 -10 L 5.84375 -10 C 5.769531 -10 5.734375 -9.960938 5.734375 -9.890625 L 5.734375 -0.265625 C 5.734375 -0.0859375 5.644531 0 5.46875 0 L 4.078125 0 C 3.898438 0 3.8125 -0.0859375 3.8125 -0.265625 L 3.8125 -9.890625 C 3.8125 -9.960938 3.773438 -10 3.703125 -10 L 0.828125 -10 C 0.648438 -10 0.5625 -10.085938 0.5625 -10.265625 L 0.5625 -11.421875 C 0.5625 -11.597656 0.648438 -11.6875 0.828125 -11.6875 Z M 8.828125 -11.6875 "/></g></g></g><g fill="#2a79df" fill-opacity="1"><g transform="translate(158.194122, 264.463639)"><g/></g></g><g fill="#2a79df" fill-opacity="1"><g transform="translate(161.528557, 264.463639)"><g><path d="M 4.96875 0.140625 C 4.125 0.140625 3.378906 0 2.734375 -0.28125 C 2.097656 -0.5625 1.609375 -0.953125 1.265625 -1.453125 C 0.921875 -1.960938 0.75 -2.550781 0.75 -3.21875 L 0.75 -3.578125 C 0.75 -3.753906 0.835938 -3.84375 1.015625 -3.84375 L 2.390625 -3.84375 C 2.566406 -3.84375 2.65625 -3.757812 2.65625 -3.59375 L 2.65625 -3.328125 C 2.65625 -2.804688 2.878906 -2.375 3.328125 -2.03125 C 3.773438 -1.695312 4.375 -1.53125 5.125 -1.53125 C 5.800781 -1.53125 6.3125 -1.675781 6.65625 -1.96875 C 7 -2.257812 7.171875 -2.632812 7.171875 -3.09375 C 7.171875 -3.394531 7.078125 -3.65625 6.890625 -3.875 C 6.703125 -4.09375 6.429688 -4.289062 6.078125 -4.46875 C 5.734375 -4.644531 5.207031 -4.867188 4.5 -5.140625 C 3.71875 -5.429688 3.082031 -5.703125 2.59375 -5.953125 C 2.101562 -6.210938 1.691406 -6.5625 1.359375 -7 C 1.035156 -7.4375 0.875 -7.984375 0.875 -8.640625 C 0.875 -9.617188 1.226562 -10.390625 1.9375 -10.953125 C 2.644531 -11.523438 3.597656 -11.8125 4.796875 -11.8125 C 5.628906 -11.8125 6.363281 -11.664062 7 -11.375 C 7.632812 -11.09375 8.128906 -10.691406 8.484375 -10.171875 C 8.847656 -9.648438 9.03125 -9.050781 9.03125 -8.375 L 9.03125 -8.15625 C 9.03125 -7.976562 8.941406 -7.890625 8.765625 -7.890625 L 7.390625 -7.890625 C 7.316406 -7.890625 7.253906 -7.910156 7.203125 -7.953125 C 7.148438 -7.992188 7.125 -8.039062 7.125 -8.09375 L 7.125 -8.28125 C 7.125 -8.800781 6.910156 -9.238281 6.484375 -9.59375 C 6.054688 -9.957031 5.460938 -10.140625 4.703125 -10.140625 C 4.085938 -10.140625 3.609375 -10.007812 3.265625 -9.75 C 2.929688 -9.5 2.765625 -9.140625 2.765625 -8.671875 C 2.765625 -8.335938 2.851562 -8.066406 3.03125 -7.859375 C 3.207031 -7.648438 3.472656 -7.457031 3.828125 -7.28125 C 4.191406 -7.113281 4.742188 -6.894531 5.484375 -6.625 C 6.273438 -6.320312 6.90625 -6.046875 7.375 -5.796875 C 7.851562 -5.554688 8.257812 -5.21875 8.59375 -4.78125 C 8.9375 -4.34375 9.109375 -3.796875 9.109375 -3.140625 C 9.109375 -2.492188 8.941406 -1.921875 8.609375 -1.421875 C 8.273438 -0.929688 7.796875 -0.546875 7.171875 -0.265625 C 6.546875 0.00390625 5.8125 0.140625 4.96875 0.140625 Z M 4.96875 0.140625 "/></g></g></g><g fill="#2a79df" fill-opacity="1"><g transform="translate(171.365147, 264.463639)"><g><path d="M 4.671875 0.140625 C 3.796875 0.140625 3.039062 -0.0820312 2.40625 -0.53125 C 1.769531 -0.976562 1.328125 -1.597656 1.078125 -2.390625 C 0.890625 -2.929688 0.796875 -3.5625 0.796875 -4.28125 C 0.796875 -5 0.882812 -5.632812 1.0625 -6.1875 C 1.320312 -6.96875 1.769531 -7.570312 2.40625 -8 C 3.039062 -8.4375 3.800781 -8.65625 4.6875 -8.65625 C 5.53125 -8.65625 6.257812 -8.4375 6.875 -8 C 7.5 -7.570312 7.9375 -6.972656 8.1875 -6.203125 C 8.394531 -5.671875 8.5 -5.039062 8.5 -4.3125 C 8.5 -3.601562 8.398438 -2.96875 8.203125 -2.40625 C 7.953125 -1.613281 7.515625 -0.988281 6.890625 -0.53125 C 6.265625 -0.0820312 5.523438 0.140625 4.671875 0.140625 Z M 4.671875 -1.53125 C 5.085938 -1.53125 5.441406 -1.644531 5.734375 -1.875 C 6.023438 -2.113281 6.234375 -2.445312 6.359375 -2.875 C 6.484375 -3.226562 6.546875 -3.691406 6.546875 -4.265625 C 6.546875 -4.816406 6.488281 -5.285156 6.375 -5.671875 C 6.25 -6.097656 6.03125 -6.421875 5.71875 -6.640625 C 5.414062 -6.867188 5.054688 -6.984375 4.640625 -6.984375 C 4.210938 -6.984375 3.847656 -6.867188 3.546875 -6.640625 C 3.253906 -6.421875 3.046875 -6.097656 2.921875 -5.671875 C 2.804688 -5.285156 2.75 -4.816406 2.75 -4.265625 C 2.75 -3.722656 2.804688 -3.257812 2.921875 -2.875 C 3.046875 -2.445312 3.257812 -2.113281 3.5625 -1.875 C 3.863281 -1.644531 4.234375 -1.53125 4.671875 -1.53125 Z M 4.671875 -1.53125 "/></g></g></g><g fill="#2a79df" fill-opacity="1"><g transform="translate(180.651553, 264.463639)"><g><path d="M 1.3125 0 C 1.132812 0 1.046875 -0.0859375 1.046875 -0.265625 L 1.046875 -11.421875 C 1.046875 -11.597656 1.132812 -11.6875 1.3125 -11.6875 L 2.71875 -11.6875 C 2.894531 -11.6875 2.984375 -11.597656 2.984375 -11.421875 L 2.984375 -0.265625 C 2.984375 -0.0859375 2.894531 0 2.71875 0 Z M 1.3125 0 "/></g></g></g><g fill="#2a79df" fill-opacity="1"><g transform="translate(184.702898, 264.463639)"><g><path d="M 6.078125 -8.265625 C 6.078125 -8.441406 6.164062 -8.53125 6.34375 -8.53125 L 7.71875 -8.53125 C 7.90625 -8.53125 8 -8.441406 8 -8.265625 L 8 -0.265625 C 8 -0.0859375 7.90625 0 7.71875 0 L 6.34375 0 C 6.164062 0 6.078125 -0.0859375 6.078125 -0.265625 L 6.078125 -0.703125 C 6.078125 -0.742188 6.0625 -0.769531 6.03125 -0.78125 C 6 -0.789062 5.972656 -0.773438 5.953125 -0.734375 C 5.515625 -0.171875 4.835938 0.109375 3.921875 0.109375 C 3.078125 0.109375 2.367188 -0.132812 1.796875 -0.625 C 1.222656 -1.113281 0.9375 -1.804688 0.9375 -2.703125 L 0.9375 -8.265625 C 0.9375 -8.441406 1.023438 -8.53125 1.203125 -8.53125 L 2.609375 -8.53125 C 2.785156 -8.53125 2.875 -8.441406 2.875 -8.265625 L 2.875 -3.25 C 2.875 -2.726562 3.007812 -2.3125 3.28125 -2 C 3.550781 -1.6875 3.929688 -1.53125 4.421875 -1.53125 C 4.921875 -1.53125 5.320312 -1.6875 5.625 -2 C 5.925781 -2.3125 6.078125 -2.726562 6.078125 -3.25 Z M 6.078125 -8.265625 "/></g></g></g><g fill="#2a79df" fill-opacity="1"><g transform="translate(193.722552, 264.463639)"><g><path d="M 5.5625 -7.21875 C 5.5625 -7.039062 5.472656 -6.953125 5.296875 -6.953125 L 3.671875 -6.953125 C 3.609375 -6.953125 3.578125 -6.921875 3.578125 -6.859375 L 3.578125 -2.921875 C 3.578125 -2.484375 3.664062 -2.171875 3.84375 -1.984375 C 4.03125 -1.796875 4.320312 -1.703125 4.71875 -1.703125 L 5.15625 -1.703125 C 5.332031 -1.703125 5.421875 -1.613281 5.421875 -1.4375 L 5.421875 -0.3125 C 5.421875 -0.132812 5.332031 -0.0390625 5.15625 -0.03125 L 4.359375 -0.015625 C 3.472656 -0.015625 2.8125 -0.164062 2.375 -0.46875 C 1.945312 -0.78125 1.726562 -1.351562 1.71875 -2.1875 L 1.71875 -6.859375 C 1.71875 -6.921875 1.6875 -6.953125 1.625 -6.953125 L 0.75 -6.953125 C 0.570312 -6.953125 0.484375 -7.039062 0.484375 -7.21875 L 0.484375 -8.265625 C 0.484375 -8.441406 0.570312 -8.53125 0.75 -8.53125 L 1.625 -8.53125 C 1.6875 -8.53125 1.71875 -8.5625 1.71875 -8.625 L 1.71875 -10.5 C 1.71875 -10.675781 1.804688 -10.765625 1.984375 -10.765625 L 3.296875 -10.765625 C 3.484375 -10.765625 3.578125 -10.675781 3.578125 -10.5 L 3.578125 -8.625 C 3.578125 -8.5625 3.609375 -8.53125 3.671875 -8.53125 L 5.296875 -8.53125 C 5.472656 -8.53125 5.5625 -8.441406 5.5625 -8.265625 Z M 5.5625 -7.21875 "/></g></g></g><g fill="#2a79df" fill-opacity="1"><g transform="translate(199.957943, 264.463639)"><g><path d="M 2.140625 -9.59375 C 1.765625 -9.59375 1.460938 -9.707031 1.234375 -9.9375 C 1.003906 -10.164062 0.890625 -10.457031 0.890625 -10.8125 C 0.890625 -11.164062 1.003906 -11.453125 1.234375 -11.671875 C 1.460938 -11.898438 1.765625 -12.015625 2.140625 -12.015625 C 2.503906 -12.015625 2.800781 -11.898438 3.03125 -11.671875 C 3.257812 -11.453125 3.375 -11.164062 3.375 -10.8125 C 3.375 -10.457031 3.257812 -10.164062 3.03125 -9.9375 C 2.800781 -9.707031 2.503906 -9.59375 2.140625 -9.59375 Z M 1.4375 0 C 1.257812 0 1.171875 -0.0859375 1.171875 -0.265625 L 1.171875 -8.265625 C 1.171875 -8.441406 1.257812 -8.53125 1.4375 -8.53125 L 2.84375 -8.53125 C 3.019531 -8.53125 3.109375 -8.441406 3.109375 -8.265625 L 3.109375 -0.265625 C 3.109375 -0.0859375 3.019531 0 2.84375 0 Z M 1.4375 0 "/></g></g></g><g fill="#2a79df" fill-opacity="1"><g transform="translate(204.209353, 264.463639)"><g><path d="M 4.671875 0.140625 C 3.796875 0.140625 3.039062 -0.0820312 2.40625 -0.53125 C 1.769531 -0.976562 1.328125 -1.597656 1.078125 -2.390625 C 0.890625 -2.929688 0.796875 -3.5625 0.796875 -4.28125 C 0.796875 -5 0.882812 -5.632812 1.0625 -6.1875 C 1.320312 -6.96875 1.769531 -7.570312 2.40625 -8 C 3.039062 -8.4375 3.800781 -8.65625 4.6875 -8.65625 C 5.53125 -8.65625 6.257812 -8.4375 6.875 -8 C 7.5 -7.570312 7.9375 -6.972656 8.1875 -6.203125 C 8.394531 -5.671875 8.5 -5.039062 8.5 -4.3125 C 8.5 -3.601562 8.398438 -2.96875 8.203125 -2.40625 C 7.953125 -1.613281 7.515625 -0.988281 6.890625 -0.53125 C 6.265625 -0.0820312 5.523438 0.140625 4.671875 0.140625 Z M 4.671875 -1.53125 C 5.085938 -1.53125 5.441406 -1.644531 5.734375 -1.875 C 6.023438 -2.113281 6.234375 -2.445312 6.359375 -2.875 C 6.484375 -3.226562 6.546875 -3.691406 6.546875 -4.265625 C 6.546875 -4.816406 6.488281 -5.285156 6.375 -5.671875 C 6.25 -6.097656 6.03125 -6.421875 5.71875 -6.640625 C 5.414062 -6.867188 5.054688 -6.984375 4.640625 -6.984375 C 4.210938 -6.984375 3.847656 -6.867188 3.546875 -6.640625 C 3.253906 -6.421875 3.046875 -6.097656 2.921875 -5.671875 C 2.804688 -5.285156 2.75 -4.816406 2.75 -4.265625 C 2.75 -3.722656 2.804688 -3.257812 2.921875 -2.875 C 3.046875 -2.445312 3.257812 -2.113281 3.5625 -1.875 C 3.863281 -1.644531 4.234375 -1.53125 4.671875 -1.53125 Z M 4.671875 -1.53125 "/></g></g></g><g fill="#2a79df" fill-opacity="1"><g transform="translate(213.495758, 264.463639)"><g><path d="M 5.125 -8.65625 C 6.03125 -8.65625 6.753906 -8.390625 7.296875 -7.859375 C 7.835938 -7.328125 8.109375 -6.597656 8.109375 -5.671875 L 8.109375 -0.265625 C 8.109375 -0.0859375 8.019531 0 7.84375 0 L 6.4375 0 C 6.257812 0 6.171875 -0.0859375 6.171875 -0.265625 L 6.171875 -5.265625 C 6.171875 -5.785156 6.023438 -6.203125 5.734375 -6.515625 C 5.441406 -6.828125 5.054688 -6.984375 4.578125 -6.984375 C 4.097656 -6.984375 3.707031 -6.828125 3.40625 -6.515625 C 3.113281 -6.210938 2.96875 -5.804688 2.96875 -5.296875 L 2.96875 -0.265625 C 2.96875 -0.0859375 2.878906 0 2.703125 0 L 1.296875 0 C 1.117188 0 1.03125 -0.0859375 1.03125 -0.265625 L 1.03125 -8.265625 C 1.03125 -8.441406 1.117188 -8.53125 1.296875 -8.53125 L 2.703125 -8.53125 C 2.878906 -8.53125 2.96875 -8.441406 2.96875 -8.265625 L 2.96875 -7.8125 C 2.96875 -7.769531 2.976562 -7.738281 3 -7.71875 C 3.019531 -7.707031 3.046875 -7.722656 3.078125 -7.765625 C 3.535156 -8.359375 4.21875 -8.65625 5.125 -8.65625 Z M 5.125 -8.65625 "/></g></g></g><g fill="#2a79df" fill-opacity="1"><g transform="translate(222.565431, 264.463639)"><g><path d="M 4.21875 0.09375 C 3.519531 0.09375 2.90625 -0.00390625 2.375 -0.203125 C 1.84375 -0.410156 1.429688 -0.695312 1.140625 -1.0625 C 0.859375 -1.425781 0.71875 -1.828125 0.71875 -2.265625 L 0.71875 -2.359375 C 0.71875 -2.535156 0.804688 -2.625 0.984375 -2.625 L 2.3125 -2.625 C 2.5 -2.625 2.59375 -2.582031 2.59375 -2.5 L 2.59375 -2.390625 C 2.59375 -2.109375 2.742188 -1.863281 3.046875 -1.65625 C 3.347656 -1.457031 3.734375 -1.359375 4.203125 -1.359375 C 4.648438 -1.359375 5.007812 -1.445312 5.28125 -1.625 C 5.5625 -1.8125 5.703125 -2.039062 5.703125 -2.3125 C 5.703125 -2.570312 5.585938 -2.765625 5.359375 -2.890625 C 5.128906 -3.023438 4.757812 -3.160156 4.25 -3.296875 L 3.625 -3.5 C 3.050781 -3.664062 2.570312 -3.84375 2.1875 -4.03125 C 1.800781 -4.226562 1.472656 -4.488281 1.203125 -4.8125 C 0.929688 -5.144531 0.796875 -5.566406 0.796875 -6.078125 C 0.796875 -6.859375 1.097656 -7.476562 1.703125 -7.9375 C 2.316406 -8.394531 3.125 -8.625 4.125 -8.625 C 4.800781 -8.625 5.394531 -8.515625 5.90625 -8.296875 C 6.414062 -8.085938 6.8125 -7.789062 7.09375 -7.40625 C 7.382812 -7.019531 7.53125 -6.582031 7.53125 -6.09375 C 7.53125 -6.03125 7.503906 -5.976562 7.453125 -5.9375 C 7.398438 -5.90625 7.335938 -5.890625 7.265625 -5.890625 L 5.96875 -5.890625 C 5.789062 -5.890625 5.703125 -5.921875 5.703125 -5.984375 L 5.703125 -6.09375 C 5.703125 -6.382812 5.5625 -6.625 5.28125 -6.8125 C 5 -7.007812 4.613281 -7.109375 4.125 -7.109375 C 3.6875 -7.109375 3.332031 -7.023438 3.0625 -6.859375 C 2.789062 -6.703125 2.65625 -6.476562 2.65625 -6.1875 C 2.65625 -5.925781 2.78125 -5.722656 3.03125 -5.578125 C 3.289062 -5.441406 3.722656 -5.289062 4.328125 -5.125 L 4.703125 -5.015625 C 5.304688 -4.835938 5.804688 -4.660156 6.203125 -4.484375 C 6.609375 -4.304688 6.945312 -4.050781 7.21875 -3.71875 C 7.5 -3.382812 7.640625 -2.957031 7.640625 -2.4375 C 7.640625 -1.644531 7.328125 -1.023438 6.703125 -0.578125 C 6.085938 -0.128906 5.257812 0.09375 4.21875 0.09375 Z M 4.21875 0.09375 "/></g></g></g></svg>